<svg width="37" height="69" viewBox="0 0 37 69" fill="none" xmlns="http://www.w3.org/2000/svg">
<path d="M5.50045 43.3938C6.16821 43.3844 6.82717 43.2384 7.43754 42.9648C8.04791 42.6911 8.59704 42.2955 9.05179 41.8016C9.14889 42.7542 9.51608 43.6583 10.1093 44.4054C10.7026 45.1526 11.4967 45.711 12.3964 46.0139C13.2961 46.3167 14.2632 46.351 15.1818 46.1127C16.1003 45.8744 16.9313 45.3736 17.575 44.6704C17.7088 45.9039 18.2915 47.0433 19.2102 47.8676C20.1289 48.6919 21.318 49.1422 22.5469 49.1313C23.2284 49.1297 23.901 48.9743 24.5155 48.6765C25.1299 48.3786 25.6707 47.946 26.0982 47.41L26.0982 63.475C26.0982 64.8065 26.622 66.0834 27.5544 67.0249C28.4868 67.9664 29.7515 68.4953 31.0701 68.4953C32.3887 68.4953 33.6533 67.9664 34.5857 67.0249C35.5181 66.0834 36.042 64.8065 36.042 63.475L36.042 19.0094C36.042 14.2542 34.1712 9.69367 30.8412 6.3312C27.5111 2.96873 22.9946 1.07971 18.2853 1.07971C13.5759 1.07971 9.05942 2.96873 5.7294 6.3312C2.39937 9.69366 0.528576 14.2541 0.528576 19.0094L0.528574 38.3735C0.528574 39.7049 1.0524 40.9819 1.9848 41.9234C2.91721 42.8648 4.18183 43.3938 5.50045 43.3938V43.3938ZM1.94911 19.0094C1.94911 14.6346 3.67024 10.4389 6.73386 7.34545C9.79749 4.25198 13.9527 2.51408 18.2853 2.51408C22.6179 2.51409 26.7731 4.25198 29.8367 7.34545C32.9003 10.4389 34.6214 14.6346 34.6214 19.0094L34.6214 63.475C34.6214 64.4261 34.2473 65.3382 33.5813 66.0107C32.9153 66.6832 32.012 67.061 31.0701 67.061C30.1282 67.061 29.2249 66.6832 28.5589 66.0107C27.8929 65.3382 27.5187 64.4261 27.5187 63.475L27.5188 34.0703C27.5188 33.8801 27.4439 33.6977 27.3107 33.5632C27.1775 33.4287 26.9969 33.3531 26.8085 33.3531C26.6201 33.3531 26.4395 33.4287 26.3062 33.5632C26.173 33.6977 26.0982 33.8801 26.0982 34.0703L26.0982 42.6766C26.0982 45.7748 24.6777 47.6969 22.5469 47.6969C21.605 47.6969 20.7017 47.3191 20.0357 46.6466C19.3697 45.9741 18.9955 45.062 18.9955 44.111L18.9955 32.636C18.9955 32.4458 18.9207 32.2633 18.7875 32.1288C18.6543 31.9943 18.4736 31.9188 18.2853 31.9188C18.0969 31.9188 17.9162 31.9943 17.783 32.1288C17.6498 32.2633 17.575 32.4458 17.575 32.636L17.575 41.2422C17.575 42.1933 17.2008 43.1054 16.5348 43.7779C15.8688 44.4503 14.9655 44.8281 14.0237 44.8281C13.0818 44.8281 12.1785 44.4503 11.5125 43.7779C10.8465 43.1054 10.4723 42.1933 10.4723 41.2422L10.4723 31.2016C10.4723 31.0114 10.3975 30.829 10.2643 30.6945C10.1311 30.56 9.95043 30.4844 9.76206 30.4844C9.57368 30.4844 9.39302 30.56 9.25982 30.6945C9.12662 30.829 9.05179 31.0114 9.05179 31.2016L9.05179 38.3735C9.05179 39.3245 8.67763 40.2366 8.01163 40.9091C7.34562 41.5816 6.44232 41.9594 5.50045 41.9594C4.55857 41.9594 3.65528 41.5816 2.98927 40.9091C2.32326 40.2366 1.94911 39.3245 1.94911 38.3735L1.94911 19.0094Z" fill="#2C063F" stroke="#2C063F"/>
</svg>
