<svg width="182" height="92" viewBox="0 0 182 92" fill="none" xmlns="http://www.w3.org/2000/svg">
<mask id="mask0_1_350" style="mask-type:alpha" maskUnits="userSpaceOnUse" x="73" y="24" width="40" height="40">
<circle cx="93" cy="44" r="20" fill="white"/>
</mask>
<g mask="url(#mask0_1_350)">
<rect x="70.6403" y="12.6329" width="44.6113" height="52.8686" fill="white"/>
<path d="M92.8793 23.8926C87.0348 23.8926 82.297 28.6304 82.297 34.4749V35.6401C81.2246 35.82 80.4073 36.7527 80.4073 37.8763V40.5219C80.4073 41.6655 81.2539 42.6115 82.3546 42.767C82.7452 46.5097 85.0867 49.6721 88.344 51.2196V54.6946H87.5881C80.074 54.6946 73.9823 60.7862 73.9823 68.3003V70.0011H111.776V68.3003C111.776 60.7862 105.685 54.6946 98.1704 54.6946H97.4145V51.2196C100.672 49.6721 103.013 46.5097 103.404 42.767C104.505 42.6115 105.351 41.6655 105.351 40.5219V37.8763C105.351 36.7527 104.534 35.82 103.462 35.6401V34.4749C103.462 28.6304 98.7237 23.8926 92.8793 23.8926Z" fill="#D08B5B"/>
<path d="M88.3443 51.2194V52.7311C89.7615 53.4038 91.3109 53.7517 92.8796 53.7495C94.4483 53.7517 95.9977 53.4038 97.4148 52.7311V51.2194C95.9977 51.892 94.4483 52.2399 92.8796 52.2377C91.3109 52.2399 89.7615 51.892 88.3443 51.2194Z" fill="black" fill-opacity="0.1"/>
<path d="M104.973 56.5146V70.001H80.785V56.5146C82.298 55.6388 83.9666 55.0648 85.6982 54.8245V63.1981H100.06V54.8245C101.791 55.0648 103.46 55.6388 104.973 56.5146V56.5146Z" fill="#65C9FF"/>
<path d="M84.1866 64.8989C84.1866 65.023 84.1621 65.1458 84.1146 65.2605C84.0672 65.3751 83.9976 65.4793 83.9098 65.567C83.8221 65.6547 83.7179 65.7243 83.6033 65.7718C83.4887 65.8193 83.3658 65.8437 83.2417 65.8437C83.1176 65.8437 82.9948 65.8193 82.8801 65.7718C82.7655 65.7243 82.6613 65.6547 82.5736 65.567C82.4859 65.4793 82.4163 65.3751 82.3688 65.2605C82.3213 65.1458 82.2969 65.023 82.2969 64.8989C82.2969 64.6483 82.3964 64.408 82.5736 64.2308C82.7508 64.0536 82.9911 63.954 83.2417 63.954C83.4923 63.954 83.7326 64.0536 83.9098 64.2308C84.087 64.408 84.1866 64.6483 84.1866 64.8989ZM103.461 64.8989C103.461 65.1495 103.362 65.3898 103.185 65.567C103.007 65.7442 102.767 65.8437 102.517 65.8437C102.266 65.8437 102.026 65.7442 101.848 65.567C101.671 65.3898 101.572 65.1495 101.572 64.8989C101.572 64.6483 101.671 64.408 101.848 64.2308C102.026 64.0536 102.266 63.954 102.517 63.954C102.767 63.954 103.007 64.0536 103.185 64.2308C103.362 64.408 103.461 64.6483 103.461 64.8989Z" fill="#F4F4F4"/>
<path d="M96.4684 43.7346H89.2876C87.9309 43.7346 86.831 44.8344 86.831 46.1912C86.831 47.5479 87.9309 48.6478 89.2876 48.6478H96.4684C97.8252 48.6478 98.925 47.5479 98.925 46.1912C98.925 44.8344 97.8252 43.7346 96.4684 43.7346Z" fill="black" fill-opacity="0.6"/>
<path d="M96.4681 44.1124H89.2873C88.1393 44.1124 87.2086 45.043 87.2086 46.191C87.2086 47.339 88.1393 48.2697 89.2873 48.2697H96.4681C97.6161 48.2697 98.5468 47.339 98.5468 46.191C98.5468 45.043 97.6161 44.1124 96.4681 44.1124Z" fill="white"/>
<path d="M87.2431 45.8131H88.7206V44.1906C88.9051 44.1385 89.0959 44.1122 89.2875 44.1124H89.4765V45.8131H91.1772V44.1124H91.9331V45.8131H93.6338V44.1124H94.3897V45.8131H96.0904V44.1124H96.4684C96.5974 44.1124 96.7237 44.1241 96.8463 44.1466V45.8131H98.5128L98.5219 45.8664V46.5157L98.5128 46.569H96.8463V48.2355C96.7237 48.258 96.5974 48.2697 96.4684 48.2697H96.0904V46.569H94.3897V48.2697H93.6338V46.569H91.9331V48.2697H91.1772V46.569H89.4765V48.2697H89.2875C89.0959 48.2699 88.9051 48.2435 88.7206 48.1915V46.569H87.2431C87.1971 46.3191 87.1971 46.063 87.2431 45.8131Z" fill="#E6E6E6"/>
<path fill-rule="evenodd" clip-rule="evenodd" d="M90.6114 41.6556C90.6114 42.4905 91.6267 43.1674 92.879 43.1674C94.1313 43.1674 95.1467 42.4905 95.1467 41.6556" fill="black" fill-opacity="0.16"/>
<path d="M87.0215 39.1995C87.0215 39.1995 85.8877 40.5733 85.8877 41.3292C85.8877 41.4781 85.9171 41.6255 85.974 41.7631C86.031 41.9006 86.1145 42.0256 86.2198 42.1309C86.3251 42.2362 86.4501 42.3197 86.5877 42.3767C86.7252 42.4337 86.8726 42.463 87.0215 42.463C87.1704 42.463 87.3179 42.4337 87.4554 42.3767C87.593 42.3197 87.718 42.2362 87.8233 42.1309C87.9286 42.0256 88.0121 41.9006 88.0691 41.7631C88.126 41.6255 88.1554 41.4781 88.1554 41.3292C88.1554 40.5733 87.0215 39.1995 87.0215 39.1995V39.1995Z" fill="#92D9FF"/>
<path d="M89.1001 38.2548C89.1001 38.5555 88.9806 38.8439 88.768 39.0565C88.5554 39.2691 88.267 39.3886 87.9663 39.3886C87.6656 39.3886 87.3772 39.2691 87.1646 39.0565C86.9519 38.8439 86.8325 38.5555 86.8325 38.2548C86.8325 37.9541 86.9519 37.6657 87.1646 37.4531C87.3772 37.2404 87.6656 37.121 87.9663 37.121C88.267 37.121 88.5554 37.2404 88.768 37.4531C88.9806 37.6657 89.1001 37.9541 89.1001 38.2548V38.2548ZM98.9265 38.2548C98.9265 38.5555 98.807 38.8439 98.5944 39.0565C98.3818 39.2691 98.0934 39.3886 97.7927 39.3886C97.492 39.3886 97.2036 39.2691 96.9909 39.0565C96.7783 38.8439 96.6589 38.5555 96.6589 38.2548C96.6589 37.9541 96.7783 37.6657 96.9909 37.4531C97.2036 37.2404 97.492 37.121 97.7927 37.121C98.0934 37.121 98.3818 37.2404 98.5944 37.4531C98.807 37.6657 98.9265 37.9541 98.9265 38.2548V38.2548Z" fill="black" fill-opacity="0.6"/>
<path fill-rule="evenodd" clip-rule="evenodd" d="M86.5998 32.8835L86.7719 32.8075C87.7627 32.4143 89.2641 32.579 90.1821 33.0197C90.2892 33.0711 90.2161 33.2376 90.1061 33.2291C87.2869 33.0116 85.3889 34.7684 84.7441 35.9578C84.725 35.9931 84.6672 35.9971 84.653 35.9642C84.2169 34.9591 85.4939 33.3215 86.5998 32.8835V32.8835ZM99.1602 32.8835L98.988 32.8075C97.9973 32.4143 96.4959 32.579 95.5779 33.0197C95.4708 33.0711 95.5439 33.2376 95.6539 33.2291C98.4731 33.0116 100.371 34.7684 101.016 35.9578C101.035 35.9931 101.093 35.9971 101.107 35.9642C101.543 34.9591 100.266 33.3215 99.1602 32.8835V32.8835Z" fill="black" fill-opacity="0.6"/>
<path d="M87.8811 43.863C88.1886 43.6787 88.4871 43.4998 88.7957 43.3818C89.7765 43.0071 91.5962 43.1135 92.8797 43.791C94.1632 43.1133 95.983 43.0071 96.9637 43.3818C97.2723 43.4998 97.5709 43.6785 97.8783 43.863C98.6578 44.3303 99.4942 44.8316 100.696 44.4582C100.766 44.4367 100.834 44.4992 100.813 44.5678C100.553 45.4201 99.1106 46.0038 98.6204 46.0229C97.4475 46.0686 96.3995 45.5956 95.3841 45.1374C94.5444 44.7583 93.7269 44.3894 92.8797 44.3324C92.0326 44.3894 91.2151 44.7583 90.3755 45.1374C89.36 45.5956 88.312 46.0686 87.1392 46.0229C86.649 46.0038 85.2064 45.4201 84.9468 44.5678C84.926 44.4992 84.994 44.4367 85.0638 44.4582C86.2652 44.8316 87.1016 44.3303 87.8813 43.863H87.8811Z" fill="#2C1B18"/>
</g>
<mask id="mask1_1_350" style="mask-type:alpha" maskUnits="userSpaceOnUse" x="109" y="24" width="40" height="40">
<circle cx="129" cy="44" r="20" fill="white"/>
</mask>
<g mask="url(#mask1_1_350)">
<rect x="108.57" y="14.3488" width="44.6113" height="52.8686" fill="#2C063F"/>
<path d="M128.971 25.2324C123.217 25.2324 118.552 29.8972 118.552 35.6516V36.7988C117.496 36.9759 116.692 37.8943 116.692 39.0006V41.6054C116.692 42.7314 117.525 43.6628 118.609 43.816C118.994 47.501 121.299 50.6147 124.506 52.1383V55.5597H123.762C116.363 55.5597 110.366 61.5575 110.366 68.9559V70.6304H147.577V68.9559C147.577 61.5575 141.58 55.5597 134.181 55.5597H133.437V52.1383C136.644 50.6147 138.949 47.501 139.334 43.816C140.418 43.6628 141.251 42.7314 141.251 41.6054V39.0006C141.251 37.8943 140.447 36.9759 139.391 36.7988V35.6516C139.391 29.8972 134.726 25.2324 128.971 25.2324Z" fill="#614335"/>
<path d="M124.506 52.1387V53.6271C125.902 54.2894 127.427 54.632 128.972 54.6298C130.516 54.632 132.042 54.2894 133.437 53.6271V52.1387C132.042 52.801 130.516 53.1435 128.972 53.1413C127.427 53.1435 125.902 52.8009 124.506 52.1387Z" fill="black" fill-opacity="0.1"/>
<path d="M140.878 57.3513V70.6299H117.063V57.3513C118.552 56.489 120.195 55.9238 121.9 55.6872V63.9318H136.041V55.6872C137.746 55.9238 139.388 56.489 140.878 57.3513V57.3513Z" fill="#262E33"/>
<path fill-rule="evenodd" clip-rule="evenodd" d="M125.457 46.2807C125.654 48.0467 127.151 49.4198 128.97 49.4198C130.794 49.4198 132.296 48.0382 132.485 46.2643C132.5 46.1216 132.341 45.8847 132.141 45.8847H125.823C125.622 45.8847 125.437 46.1039 125.457 46.2807Z" fill="black" fill-opacity="0.7"/>
<path d="M131.947 45.8848H126.179C126.179 46.1315 126.277 46.3681 126.451 46.5426C126.626 46.717 126.862 46.8151 127.109 46.8151H131.016C131.263 46.8151 131.5 46.717 131.674 46.5426C131.849 46.3681 131.947 46.1315 131.947 45.8848Z" fill="white"/>
<path d="M131.33 48.5151C130.948 48.1402 130.434 47.9305 129.899 47.9313C129.564 47.9313 129.248 48.0118 128.969 48.1545C128.69 48.0118 128.373 47.9313 128.038 47.9313C127.481 47.9313 126.976 48.154 126.607 48.5151C127.255 49.0986 128.097 49.421 128.969 49.4197C129.877 49.4197 130.704 49.0774 131.33 48.5151V48.5151Z" fill="#FF4F6D"/>
<path fill-rule="evenodd" clip-rule="evenodd" d="M126.739 42.7215C126.739 43.5435 127.738 44.21 128.971 44.21C130.204 44.21 131.204 43.5435 131.204 42.7215" fill="black" fill-opacity="0.16"/>
<path d="M125.252 39.3724C125.252 39.6685 125.134 39.9525 124.925 40.1618C124.715 40.3712 124.432 40.4888 124.135 40.4888C123.839 40.4888 123.555 40.3712 123.346 40.1618C123.137 39.9525 123.019 39.6685 123.019 39.3724C123.019 39.0764 123.137 38.7924 123.346 38.5831C123.555 38.3737 123.839 38.2561 124.135 38.2561C124.432 38.2561 124.715 38.3737 124.925 38.5831C125.134 38.7924 125.252 39.0764 125.252 39.3724V39.3724ZM134.927 39.3724C134.927 39.6685 134.809 39.9525 134.6 40.1618C134.39 40.3712 134.106 40.4888 133.81 40.4888C133.514 40.4888 133.23 40.3712 133.021 40.1618C132.812 39.9525 132.694 39.6685 132.694 39.3724C132.694 39.0764 132.812 38.7924 133.021 38.5831C133.23 38.3737 133.514 38.2561 133.81 38.2561C134.106 38.2561 134.39 38.3737 134.6 38.5831C134.809 38.7924 134.927 39.0764 134.927 39.3724V39.3724Z" fill="black" fill-opacity="0.6"/>
<path d="M125.627 34.8309C125.351 36.3917 123.005 37.4692 121.303 36.7718C121.114 36.6944 120.895 36.7776 120.814 36.9577C120.733 37.1378 120.82 37.3466 121.009 37.4238C123.138 38.2964 126.002 36.981 126.361 34.9487C126.395 34.7554 126.258 34.5723 126.055 34.5399C125.853 34.5073 125.661 34.6376 125.627 34.8309V34.8309ZM132.314 34.8309C132.59 36.3917 134.936 37.4692 136.638 36.7718C136.827 36.6944 137.045 36.7776 137.127 36.9577C137.208 37.1378 137.121 37.3466 136.932 37.4238C134.803 38.2964 131.939 36.981 131.58 34.9487C131.546 34.7554 131.683 34.5723 131.886 34.5399C132.088 34.5073 132.28 34.6376 132.314 34.8309V34.8309Z" fill="black" fill-opacity="0.6"/>
<path fill-rule="evenodd" clip-rule="evenodd" d="M116.505 32.9238C116.381 33.6404 116.319 34.3661 116.32 35.0933V44.024C116.32 44.2051 116.323 44.3853 116.331 44.5645C116.327 44.7176 116.323 44.8486 116.32 44.9543C116.345 45.639 115.974 47.1489 115.512 49.0284C114.791 51.9637 113.848 55.8007 113.848 58.8055C113.848 61.2271 114.217 63.056 114.572 64.8146C114.939 66.6352 115.292 68.3804 115.203 70.6302H123.948C123.948 70.6302 123.772 68.1726 123.488 65.7263C125.358 67.6252 127.734 68.8582 130.753 68.8582C143.88 68.8582 145.196 58.8433 145.196 56.7211C145.196 55.5974 144.392 54.6959 143.636 53.8482C142.963 53.0949 142.329 52.3841 142.331 51.5975C142.333 50.7876 142.523 50.2216 142.718 49.6396C142.926 49.0206 143.14 48.3832 143.14 47.414C143.14 46.3311 142.873 46.0167 142.599 45.692C142.396 45.4531 142.189 45.2086 142.08 44.6481C141.917 43.8022 141.734 41.983 141.623 40.7825V35.0933C141.623 28.1059 135.959 22.4413 128.972 22.4413C122.741 22.4413 117.562 26.9451 116.514 32.8747L116.506 32.8606L116.505 32.9238ZM128.972 28.3952C123.371 28.3952 118.738 32.935 118.738 38.5353V42.8146C118.738 48.415 123.371 52.9548 128.972 52.9548C134.572 52.9548 139.205 48.415 139.205 42.8146V38.5353C139.205 32.935 134.572 28.3952 128.972 28.3952Z" fill="#929598"/>
<path d="M140.307 38.0628C140.441 37.3599 140.508 36.646 140.507 35.9305C140.507 29.6111 135.343 24.488 128.972 24.488C122.601 24.488 117.436 29.6111 117.436 35.9305C117.436 36.6591 117.505 37.3719 117.636 38.0628C117.931 32.0574 122.893 27.2789 128.972 27.2789C135.05 27.2789 140.012 32.0574 140.307 38.0628V38.0628Z" fill="white" fill-opacity="0.5"/>
<path opacity="0.9" d="M118.753 38.0112C118.744 38.1856 118.739 38.3602 118.739 38.5348V42.8141C118.739 48.4144 123.372 52.9542 128.972 52.9542C134.573 52.9542 139.205 48.4144 139.205 42.8141V38.5348C139.205 38.3591 139.201 38.1846 139.192 38.0112C139.325 38.6736 139.392 39.3476 139.391 40.0232V44.3025C139.391 49.9029 134.852 54.4427 129.251 54.4427H128.693C123.093 54.4427 118.553 49.9029 118.553 44.3025V40.0232C118.553 39.3343 118.622 38.6615 118.753 38.0112ZM139.029 54.6555C138.212 55.9399 135.697 57.1973 132.583 57.7463C129.468 58.2956 126.675 57.9742 125.468 57.0466C125.472 57.0951 125.479 57.1435 125.487 57.1917C125.805 58.9955 129.101 59.9221 132.85 59.2612C136.598 58.6001 139.379 56.6021 139.06 54.7982C139.052 54.7502 139.041 54.7026 139.029 54.6555V54.6555ZM141.189 57.5104C140.697 59.296 138.421 61.271 135.317 62.4007C132.214 63.5305 129.2 63.4804 127.676 62.4285C127.694 62.4913 127.714 62.5537 127.737 62.6154C128.579 64.9294 132.29 65.7033 136.025 64.3439C139.76 62.9844 142.105 60.0065 141.262 57.6926C141.24 57.631 141.215 57.5702 141.189 57.5104V57.5104Z" fill="black" fill-opacity="0.16"/>
<path fill-rule="evenodd" clip-rule="evenodd" d="M123.063 36.0231C119.132 36.0231 117.736 36.9854 117.608 37.1128C117.537 37.1128 117.466 37.1268 117.4 37.1542C117.333 37.1816 117.273 37.2217 117.223 37.2723C117.172 37.3229 117.132 37.383 117.104 37.4491C117.077 37.5153 117.063 37.5862 117.063 37.6578V38.2026C117.063 38.2742 117.077 38.3451 117.104 38.4112C117.132 38.4774 117.172 38.5374 117.223 38.588C117.273 38.6387 117.333 38.6788 117.4 38.7062C117.466 38.7335 117.537 38.7476 117.608 38.7475C117.608 38.7475 118.699 38.7475 118.699 39.2923C118.699 39.3277 118.702 39.355 118.706 39.3755C118.7 39.5293 118.697 39.6833 118.698 39.8373C118.698 42.2255 120.24 43.6514 122.824 43.6514H123.336C126.067 43.6514 127.974 42.0828 127.974 39.8373C127.974 39.5693 127.968 39.3023 127.946 39.0409L128.217 38.9057C128.327 38.851 128.445 38.8109 128.566 38.7862C128.908 38.7144 129.296 38.7434 129.672 38.8383C129.807 38.8724 129.905 38.9053 129.95 38.9235L130.183 39.0179C130.16 39.2865 130.153 39.5613 130.153 39.8373C130.153 42.2255 131.695 43.6514 134.28 43.6514H134.791C137.522 43.6514 139.429 42.0828 139.429 39.8373C139.429 39.6828 139.427 39.5284 139.421 39.3753C139.425 39.355 139.428 39.3277 139.428 39.2923C139.428 38.7475 140.519 38.7475 140.519 38.7475C140.59 38.7476 140.661 38.7336 140.727 38.7063C140.794 38.6789 140.854 38.6388 140.904 38.5882C140.955 38.5375 140.995 38.4774 141.023 38.4113C141.05 38.3451 141.064 38.2742 141.064 38.2026V37.6578C141.064 37.5862 141.05 37.5152 141.023 37.4491C140.995 37.3829 140.955 37.3228 140.904 37.2722C140.854 37.2216 140.794 37.1814 140.727 37.1541C140.661 37.1267 140.59 37.1127 140.519 37.1128C140.391 36.9854 138.995 36.0231 135.064 36.0231H134.518C134.178 36.0231 133.863 36.0365 133.573 36.0623C131.828 36.1656 130.883 36.4692 129.92 36.9478C129.649 37.0415 129.365 37.0967 129.078 37.1117C128.639 37.0974 128.263 36.967 128.19 36.9405L128.113 36.9015L128.111 36.9007C127.202 36.4456 126.558 36.1232 124.289 36.0426C124.062 36.0293 123.836 36.0228 123.609 36.0231H123.063ZM122.855 37.1139C123.327 37.1102 123.798 37.1158 124.269 37.1307C126.883 37.2879 126.883 38.4249 126.883 39.8373C126.883 41.4414 125.425 42.5617 123.336 42.5617H122.824C120.315 42.5617 119.789 41.0801 119.789 39.8373C119.789 38.3477 119.789 37.1645 122.855 37.1139V37.1139ZM127.713 37.9238L127.73 37.9305L127.718 37.9363C127.716 37.9322 127.715 37.928 127.713 37.9238H127.713ZM130.413 37.9251L130.401 37.9302L130.41 37.9339L130.413 37.9251ZM133.521 37.1578C133.969 37.1281 134.477 37.1128 135.064 37.1128C135.134 37.1128 135.204 37.1132 135.272 37.1139C138.338 37.1645 138.338 38.3479 138.338 39.8373C138.338 41.4414 136.88 42.5617 134.791 42.5617H134.279C131.771 42.5617 131.244 41.0801 131.244 39.8373C131.244 38.4883 131.244 37.3906 133.521 37.158V37.1578Z" fill="black" fill-opacity="0.1"/>
<path d="M123.336 42.7344C125.894 42.7344 127.429 41.2703 127.429 39.4651C127.429 37.6595 127.19 36.1959 123.609 36.1959H123.063C119.482 36.1959 119.243 37.6595 119.243 39.4651C119.243 41.2699 120.266 42.7344 122.824 42.7344H123.336Z" fill="black" fill-opacity="0.7"/>
<path style="mix-blend-mode:screen" d="M123.336 42.7344C125.894 42.7344 127.429 41.2703 127.429 39.4651C127.429 37.6595 127.19 36.1959 123.609 36.1959H123.063C119.482 36.1959 119.243 37.6595 119.243 39.4651C119.243 41.2699 120.266 42.7344 122.824 42.7344H123.336Z" fill="url(#paint0_linear_1_350)"/>
<path d="M134.79 42.7344C137.348 42.7344 138.882 41.2703 138.882 39.4651C138.882 37.6595 138.643 36.1959 135.063 36.1959H134.517C130.936 36.1959 130.697 37.6595 130.697 39.4651C130.697 41.2699 131.72 42.7344 134.278 42.7344H134.79Z" fill="black" fill-opacity="0.7"/>
<path style="mix-blend-mode:screen" d="M134.79 42.7344C137.348 42.7344 138.882 41.2703 138.882 39.4651C138.882 37.6595 138.643 36.1959 135.063 36.1959H134.517C130.936 36.1959 130.697 37.6595 130.697 39.4651C130.697 41.2699 131.72 42.7344 134.278 42.7344H134.79Z" fill="url(#paint1_linear_1_350)"/>
<path fill-rule="evenodd" clip-rule="evenodd" d="M123.063 35.6508C119.132 35.6508 117.736 36.6131 117.608 36.7406C117.537 36.7405 117.466 36.7546 117.4 36.7819C117.333 36.8093 117.273 36.8494 117.223 36.9C117.172 36.9506 117.132 37.0107 117.104 37.0769C117.077 37.143 117.063 37.2139 117.063 37.2855V37.8303C117.063 37.9019 117.077 37.9728 117.104 38.039C117.132 38.1051 117.172 38.1652 117.223 38.2158C117.273 38.2664 117.333 38.3065 117.4 38.3339C117.466 38.3613 117.537 38.3753 117.608 38.3753C117.608 38.3753 118.699 38.3753 118.699 38.92C118.699 38.9554 118.702 38.9827 118.706 39.0032C118.7 39.1571 118.697 39.311 118.698 39.465C118.698 41.8532 120.24 43.2792 122.824 43.2792H123.336C126.067 43.2792 127.974 41.7105 127.974 39.465C127.974 39.1971 127.968 38.9301 127.946 38.6687L128.217 38.5334C128.327 38.4788 128.445 38.4386 128.566 38.414C128.908 38.3422 129.296 38.3712 129.672 38.4661C129.807 38.5001 129.905 38.533 129.95 38.5513L130.183 38.6456C130.16 38.9143 130.153 39.1891 130.153 39.465C130.153 41.8532 131.695 43.2792 134.28 43.2792H134.791C137.522 43.2792 139.429 41.7105 139.429 39.465C139.429 39.3106 139.427 39.1562 139.421 39.003C139.425 38.9827 139.428 38.9554 139.428 38.92C139.428 38.3753 140.519 38.3753 140.519 38.3753C140.59 38.3754 140.661 38.3613 140.727 38.334C140.794 38.3067 140.854 38.2665 140.904 38.2159C140.955 38.1653 140.995 38.1052 141.023 38.039C141.05 37.9728 141.064 37.9019 141.064 37.8303V37.2855C141.064 37.2139 141.05 37.143 141.023 37.0768C140.995 37.0107 140.955 36.9505 140.904 36.8999C140.854 36.8493 140.794 36.8092 140.727 36.7818C140.661 36.7545 140.59 36.7405 140.519 36.7406C140.391 36.6131 138.995 35.6508 135.064 35.6508H134.518C134.178 35.6508 133.863 35.6642 133.573 35.6901C131.828 35.7933 130.883 36.097 129.92 36.5755C129.649 36.6692 129.365 36.7244 129.078 36.7395C128.639 36.7251 128.263 36.5947 128.19 36.5683L128.113 36.5292L128.111 36.5285C127.202 36.0734 126.558 35.7509 124.289 35.6704C124.062 35.657 123.836 35.6505 123.609 35.6508H123.063ZM122.855 36.7417C123.327 36.738 123.798 36.7436 124.269 36.7584C126.883 36.9156 126.883 38.0526 126.883 39.465C126.883 41.0692 125.425 42.1894 123.336 42.1894H122.824C120.315 42.1894 119.789 40.7079 119.789 39.465C119.789 37.9754 119.789 36.7923 122.855 36.7417V36.7417ZM127.713 37.5516L127.73 37.5583L127.718 37.5641C127.716 37.5599 127.715 37.5557 127.713 37.5516H127.713ZM130.413 37.5529L130.401 37.5579L130.41 37.5616L130.413 37.5529ZM133.521 36.7856C133.969 36.7558 134.477 36.7406 135.064 36.7406C135.134 36.7406 135.204 36.7409 135.272 36.7417C138.338 36.7923 138.338 37.9756 138.338 39.465C138.338 41.0692 136.88 42.1894 134.791 42.1894H134.279C131.771 42.1894 131.244 40.7079 131.244 39.465C131.244 38.1161 131.244 37.0184 133.521 36.7858V36.7856Z" fill="#B1E2FF"/>
</g>
<mask id="mask2_1_350" style="mask-type:alpha" maskUnits="userSpaceOnUse" x="142" y="24" width="40" height="40">
<circle cx="162" cy="44" r="20" fill="#2C063F"/>
</mask>
<g mask="url(#mask2_1_350)">
<circle cx="162" cy="44" r="20" fill="#FF826A"/>
<path d="M163.348 25.7541C157.222 25.7541 152.257 30.7197 152.257 36.8452V38.0664C151.133 38.2549 150.276 39.2325 150.276 40.4102V43.1829C150.276 44.3816 151.163 45.373 152.317 45.536C152.726 49.4587 155.181 52.7732 158.594 54.3951V58.0371H157.802C149.927 58.0371 143.542 64.4216 143.542 72.2971V74.0796H183.153V72.2971C183.153 64.4216 176.769 58.0371 168.893 58.0371H168.101V54.3951C171.515 52.7732 173.969 49.4587 174.378 45.536C175.532 45.373 176.419 44.3816 176.419 43.1829V40.4102C176.419 39.2325 175.563 38.2549 174.439 38.0664V36.8452C174.439 30.7197 169.473 25.7541 163.348 25.7541Z" fill="#F9D562"/>
<path d="M158.594 54.3952V55.9796C160.08 56.6846 161.704 57.0493 163.348 57.047C164.992 57.0493 166.616 56.6846 168.101 55.9796V54.3952C166.616 55.1002 164.992 55.4648 163.348 55.4625C161.704 55.4648 160.08 55.1002 158.594 54.3952Z" fill="black" fill-opacity="0.1"/>
<path d="M176.024 59.9453V74.0801H150.673V59.9453C152.259 59.0274 154.008 58.4258 155.823 58.1739V66.9501H170.875V58.1739C172.69 58.4258 174.439 59.0273 176.024 59.9453V59.9453Z" fill="#FF488E"/>
<path fill-rule="evenodd" clip-rule="evenodd" d="M159.61 48.1604C159.82 50.0404 161.414 51.502 163.35 51.502C165.291 51.502 166.89 50.0312 167.091 48.143C167.108 47.9911 166.938 47.739 166.725 47.739H160C159.786 47.739 159.589 47.9723 159.61 48.1604Z" fill="black" fill-opacity="0.7"/>
<path d="M166.518 47.739H160.378C160.378 48.0016 160.482 48.2535 160.668 48.4392C160.854 48.6249 161.106 48.7292 161.368 48.7292H165.527C165.79 48.7292 166.042 48.6249 166.228 48.4392C166.413 48.2535 166.518 48.0016 166.518 47.739Z" fill="#2C063F"/>
<path d="M165.863 50.5388C165.457 50.1398 164.909 49.9165 164.34 49.9173C163.983 49.9173 163.646 50.0031 163.349 50.155C163.052 50.0031 162.715 49.9173 162.359 49.9173C161.766 49.9173 161.228 50.1544 160.835 50.5388C161.525 51.16 162.421 51.5031 163.349 51.5018C164.316 51.5018 165.197 51.1374 165.863 50.5388V50.5388Z" fill="#FF4F6D"/>
<path fill-rule="evenodd" clip-rule="evenodd" d="M160.968 44.3721C160.968 45.2471 162.033 45.9566 163.345 45.9566C164.658 45.9566 165.722 45.2471 165.722 44.3721" fill="black" fill-opacity="0.16"/>
<path fill-rule="evenodd" clip-rule="evenodd" d="M155.459 40.8955C155.825 40.1431 156.648 39.6186 157.606 39.6186C158.559 39.6186 159.38 40.1395 159.748 40.8876C159.857 41.1098 159.702 41.2916 159.545 41.1569C159.06 40.7396 158.37 40.479 157.606 40.479C156.865 40.479 156.195 40.7236 155.712 41.1183C155.536 41.2625 155.352 41.1155 155.459 40.8955V40.8955ZM166.946 40.8955C167.312 40.1431 168.135 39.6186 169.093 39.6186C170.047 39.6186 170.868 40.1395 171.235 40.8876C171.345 41.1098 171.189 41.2916 171.032 41.1569C170.547 40.7396 169.858 40.479 169.093 40.479C168.352 40.479 167.682 40.7236 167.199 41.1183C167.023 41.2625 166.839 41.1155 166.946 40.8955V40.8955Z" fill="black" fill-opacity="0.6"/>
<path d="M155.348 37.8727C156.188 36.7304 156.711 36.7868 157.985 37.7486L158.118 37.849C159.074 38.5743 159.527 38.8266 160.179 38.8266C160.284 38.8266 160.385 38.7848 160.459 38.7106C160.533 38.6363 160.575 38.5355 160.575 38.4305C160.575 38.3254 160.533 38.2247 160.459 38.1504C160.385 38.0761 160.284 38.0344 160.179 38.0344C159.77 38.0344 159.406 37.8319 158.597 37.2178L158.462 37.116C157.718 36.5543 157.282 36.3087 156.74 36.2505C156.011 36.1714 155.342 36.5436 154.71 37.4035C154.679 37.4455 154.657 37.493 154.645 37.5436C154.632 37.5941 154.63 37.6465 154.638 37.698C154.645 37.7494 154.663 37.7988 154.69 37.8433C154.717 37.8878 154.753 37.9266 154.795 37.9574C154.836 37.9882 154.884 38.0105 154.935 38.0229C154.985 38.0354 155.038 38.0377 155.089 38.0299C155.14 38.022 155.19 38.0041 155.234 37.9772C155.279 37.9503 155.318 37.9149 155.348 37.8729V37.8727ZM171.347 37.8727C170.507 36.7304 169.985 36.7868 168.71 37.7486L168.578 37.849C167.621 38.5743 167.169 38.8266 166.517 38.8266C166.412 38.8266 166.311 38.7848 166.236 38.7106C166.162 38.6363 166.12 38.5355 166.12 38.4305C166.12 38.3254 166.162 38.2247 166.236 38.1504C166.311 38.0761 166.412 38.0344 166.517 38.0344C166.926 38.0344 167.289 37.8319 168.099 37.2178L168.233 37.116C168.978 36.5543 169.413 36.3087 169.955 36.2505C170.685 36.1714 171.353 36.5436 171.985 37.4035C172.016 37.4455 172.038 37.4931 172.051 37.5436C172.063 37.5941 172.066 37.6466 172.058 37.698C172.05 37.7495 172.032 37.7989 172.005 37.8434C171.978 37.8879 171.943 37.9267 171.901 37.9575C171.859 37.9883 171.811 38.0106 171.761 38.023C171.71 38.0355 171.658 38.0378 171.606 38.03C171.555 38.0221 171.505 38.0042 171.461 37.9773C171.416 37.9503 171.378 37.9149 171.347 37.8729V37.8727Z" fill="black" fill-opacity="0.6"/>
<path fill-rule="evenodd" clip-rule="evenodd" d="M154.471 26.1221C155.49 25.3632 156.693 24.7128 157.949 24.4628C159.226 24.2089 160.001 24.1473 161.258 24.4484C161.581 24.526 161.69 24.6029 161.975 24.4191C162.215 24.264 163.888 22.5395 168.99 23.4967C174.146 24.4642 175.678 32.226 177.591 32.5213C178.28 32.6277 179.132 32.4453 179.159 32.0208C179.944 33.2159 180.15 34.795 179.818 36.1946C179.531 37.4 178.927 38.5325 177.839 39.1926C176.903 39.7604 175.609 40.0078 174.527 39.903C174.035 39.8555 173.588 39.7519 173.135 39.5533C172.588 39.3138 172.153 38.8817 171.617 38.6535C172.177 39.1392 172.786 39.5652 173.434 39.9246C173.759 40.1043 174.089 40.228 174.447 40.3255C174.692 40.392 175.192 40.6188 175.428 40.5596C173.882 40.8361 172.426 40.5952 171.008 39.9331C170.368 39.6345 169.753 39.2732 169.188 38.8486C168.627 38.4267 167.981 37.9956 167.542 37.4404C167.726 37.6789 167.404 37.3244 167.361 37.281C167.241 37.1582 167.123 37.033 167.007 36.9057C166.807 36.6877 166.613 36.4637 166.427 36.2341C166.032 35.7417 165.664 35.2275 165.336 34.6886C165.004 34.1428 163.681 31.941 163.281 31.4227C163.658 32.5532 164.069 33.6841 164.55 34.7748C163.617 34.4836 162.711 33.6768 162.115 32.925C161.443 32.0781 161.045 31.0894 160.905 30.0203C160.148 32.0832 158.373 33.71 156.542 34.832C156.938 34.0933 157.543 33.4684 157.938 32.7172C156.118 34.5649 153.073 35.4688 152.275 38.1784C152.071 37.236 151.413 36.4791 151.216 35.5179C150.997 34.4506 150.84 33.3175 150.875 32.227C150.954 29.8024 152.584 27.5285 154.472 26.1221H154.471Z" fill="#2C063F"/>
<path d="M173.801 45.5049C181.35 43.6831 186.52 39.968 186.52 35.6809C186.52 31.1764 180.812 27.3032 172.635 25.5945L172.575 25.3201C171.807 21.8024 168.706 19.2957 165.122 19.2957H161.567C157.983 19.2957 154.881 21.8024 154.114 25.3201L154.063 25.5533C145.779 27.2403 139.977 31.1398 139.977 35.6809C139.977 39.968 145.148 43.6831 152.697 45.5049C152.658 45.2571 152.628 45.0081 152.607 44.7582C151.504 44.5925 150.659 43.6375 150.659 42.4841V39.9928C150.659 38.8533 151.484 37.9073 152.567 37.7249V36.5433C152.565 35.058 152.871 33.5886 153.465 32.2287C155.106 29.2232 171.153 29.0693 173.046 32.2599C173.632 33.6112 173.933 35.0695 173.931 36.5433V37.7249C175.013 37.9073 175.838 38.8533 175.838 39.9928V42.4841C175.838 43.6375 174.993 44.5925 173.891 44.7582C173.87 45.0081 173.84 45.2571 173.801 45.5049V45.5049Z" fill="white"/>
</g>
<mask id="mask3_1_350" style="mask-type:alpha" maskUnits="userSpaceOnUse" x="15" y="9" width="70" height="70">
<circle cx="50" cy="44" r="35" fill="#FF826A"/>
</mask>
<g mask="url(#mask3_1_350)">
<ellipse cx="50.2823" cy="42.5887" rx="37.5403" ry="37.5403" fill="#2C063F"/>
<path d="M50.5645 15.5497C40.2635 15.5497 31.9129 23.9836 31.9129 34.3875V36.4617C30.0228 36.782 28.5823 38.4424 28.5823 40.4426V45.152C28.5823 47.1879 30.0744 48.8718 32.0145 49.1487C32.7029 55.8112 36.8299 61.4407 42.571 64.1954V70.3813H41.2387C27.9947 70.3813 42.0967 62.8012 42.0967 76.1774H58.5581L60.4435 70.3708L74.8387 68.8387V65.8112C74.8387 52.435 73.1343 70.3813 59.8903 70.3813H58.5581V64.1954C64.2991 61.4407 68.4261 55.8112 69.1145 49.1487C71.0547 48.8718 72.5468 47.1879 72.5468 45.152V40.4426C72.5468 38.4424 71.1063 36.782 69.2161 36.4617V34.3875C69.2161 23.9836 60.8655 15.5497 50.5645 15.5497Z" fill="#EDB98A"/>
<path d="M42.5709 64.1955V66.8867C45.0687 68.084 47.7995 68.7034 50.5644 68.6995C53.3293 68.7034 56.0602 68.084 58.558 66.8867V64.1955C56.0602 65.3929 53.3293 66.0122 50.5644 66.0083C47.7995 66.0122 45.0687 65.3929 42.5709 64.1955Z" fill="black" fill-opacity="0.1"/>
<path d="M42.4355 67.7097C40.1417 68.9014 38.7097 70.5917 38.7097 72.4666C38.7097 74.385 40.2095 76.1108 42.5981 77.3065L44.6103 76.0932L46.1613 76.1787L45.8226 75.3621L45.849 75.346C43.7829 74.5315 42.4355 73.1956 42.4355 71.686V67.7097ZM58.6935 71.686C58.6935 73.1956 57.3462 74.5315 55.28 75.346L55.3065 75.3621L54.9677 76.1787L56.5187 76.0932L58.531 77.3065C60.9196 76.1108 62.4194 74.3853 62.4194 72.4663C62.4194 70.592 60.9873 68.9014 58.6935 67.7097V71.686Z" fill="#F2F2F2"/>
<path fill-rule="evenodd" clip-rule="evenodd" d="M48.4073 47.7752C48.4073 49.2163 49.5639 50.376 50.9797 50.376C52.3955 50.376 53.5521 49.2163 53.5521 47.7752H54.1166C54.1166 49.5233 52.712 50.9405 50.9797 50.9405C49.2473 50.9405 47.8428 49.5233 47.8428 47.7752H48.4073Z" fill="#5F4A37"/>
<path fill-rule="evenodd" clip-rule="evenodd" d="M37.2952 41.2656C37.9104 39.9876 39.2949 39.0969 40.9049 39.0969C42.509 39.0969 43.8895 39.9816 44.5077 41.2521C44.6916 41.6295 44.4301 41.9384 44.1666 41.7096C43.3503 41.0008 42.1909 40.5581 40.9049 40.5581C39.6593 40.5581 38.5322 40.9736 37.7208 41.644C37.4241 41.8889 37.1153 41.6393 37.2952 41.2656V41.2656ZM56.6129 41.2656C57.2281 39.9876 58.6127 39.0969 60.2227 39.0969C61.8267 39.0969 63.2073 39.9816 63.8255 41.2521C64.0093 41.6295 63.7478 41.9384 63.4844 41.7096C62.6681 41.0008 61.5087 40.5581 60.2227 40.5581C58.977 40.5581 57.8499 40.9736 57.0386 41.644C56.7418 41.8889 56.4331 41.6393 56.6129 41.2656V41.2656Z" fill="black" fill-opacity="0.6"/>
<path fill-rule="evenodd" clip-rule="evenodd" d="M40.7546 33.0918C38.8205 33.1823 35.6937 34.6015 35.7743 36.5714C35.777 36.636 35.8709 36.6643 35.9166 36.6148C36.8341 35.6191 43.3492 34.6133 45.6437 35.1465C45.8535 35.1952 46.0134 34.986 45.8802 34.8346C44.7404 33.5402 42.4876 33.0094 40.7546 33.0921V33.0918ZM60.7072 33.0918C62.6413 33.1823 65.7681 34.6015 65.6875 36.5714C65.6849 36.636 65.5909 36.6643 65.5453 36.6148C64.6277 35.6191 58.1126 34.6133 55.8182 35.1465C55.6083 35.1952 55.4485 34.986 55.5817 34.8346C56.7214 33.5402 58.9743 33.0094 60.7072 33.0921V33.0918Z" fill="#2C063F"/>
<path d="M50.5645 9.49463C36.9522 9.49463 25.9177 20.6393 25.9177 34.3875V66.681C25.9147 69.4782 32.7166 71.2784 33.629 73.9193C37.5589 71.0768 36.0366 70.3813 41.2387 70.3813H42.571V64.1954C36.7323 61.394 32.563 55.6188 31.9825 48.8076C30.0577 48.5166 28.5823 46.8404 28.5823 44.8156V40.4426C28.5823 40.0567 28.6355 39.6837 28.7358 39.3305C34.4412 37.3081 39.9754 31.9514 43.2524 24.5172C43.389 24.2077 43.5199 23.8982 43.6458 23.5881C45.1732 27.7041 48.0476 30.6913 52.2691 32.5492C50.6465 30.5486 49.2642 28.2181 48.1232 25.558C50.7797 28.4193 54.2339 31.1891 58.2746 33.5449C63.0474 36.3282 67.9055 38.107 72.2207 38.843C72.4365 39.3481 72.5475 39.8925 72.5468 40.4426V44.8156C72.5468 46.8404 71.071 48.5166 69.1465 48.8076C68.566 55.6188 64.397 61.394 58.5581 64.1954V70.3813H59.8903C65.0925 70.3813 67.2395 69.3833 71.1694 72.2258C72.0817 69.5848 75.9707 69.66 75.9678 66.8629L75.2113 34.3875C75.2113 20.6393 64.1765 9.49463 50.5645 9.49463Z" fill="#2C063F"/>
<path d="M74.2709 56.2629H71.4072L73.3599 51.0488H70.0194L68.1974 57.4897H70.8199L69.4121 63.3172L74.2709 56.2629Z" fill="#2C063F"/>
<path d="M69.6798 30.1931C69.6798 30.1931 69.0244 27.1545 66.6542 26.2835C65.4177 25.8286 64.6196 26.1648 64.2181 26.4368C63.806 25.7026 63.7705 25.1532 63.7781 25.1327C63.7872 25.0428 63.7195 24.9714 63.6369 24.941C63.6166 24.9333 63.5753 24.9183 63.5473 24.9312C63.4292 24.9346 63.3435 25.0431 63.3478 25.1612C63.346 25.2305 63.4532 26.5521 64.7526 27.8688C66.5892 29.8962 69.6798 30.1931 69.6798 30.1931Z" fill="#D8FFB5"/>
<path fill-rule="evenodd" clip-rule="evenodd" d="M54.5184 17.6339C54.5336 17.6606 54.5488 17.6872 54.5904 17.6983C54.7189 17.8004 54.922 17.7882 55.0231 17.6584C55.342 17.2956 55.6493 16.9745 56.0134 16.6914C56.6105 17.1223 58.2376 17.9443 60.052 16.8864C61.6564 15.951 62.2971 13.4522 62.2971 13.4522C62.2971 13.4522 61.947 13.5148 61.3563 13.6467C61.1945 13.6703 56.9901 14.3512 54.5658 17.2873C54.5223 17.3324 54.4942 17.3904 54.4857 17.4527C54.4772 17.5151 54.4887 17.5786 54.5184 17.6339V17.6339Z" fill="#D8FFB5"/>
<path d="M67.4648 26.0843C67.643 25.8466 67.7728 25.5756 67.8467 25.287C67.9206 24.9984 67.9372 24.6978 67.8954 24.4027C67.8551 24.1073 67.7572 23.8229 67.6074 23.566C67.4576 23.3091 67.2589 23.0848 67.0226 22.9059C66.8933 22.8075 66.7229 22.7268 66.5292 22.6581C66.725 22.5964 66.8984 22.5216 67.0308 22.4281C68.0457 21.7104 68.2935 20.2921 67.5826 19.2668C66.872 18.2418 65.4678 17.9918 64.4529 18.7095C64.3205 18.8034 64.1918 18.942 64.067 19.107C64.0697 18.8997 64.0527 18.7104 64.0053 18.554C63.9198 18.2686 63.779 18.0032 63.5912 17.7731C63.4034 17.5431 63.1723 17.3529 62.9112 17.2137C62.6508 17.073 62.3655 16.9859 62.0716 16.9573C61.7777 16.9287 61.4812 16.9592 61.199 17.0472C60.0141 17.4131 59.3448 18.6844 59.7068 19.8811C59.7541 20.0366 59.8425 20.202 59.9585 20.3719C59.7651 20.3056 59.5832 20.2658 59.4219 20.263C58.1829 20.2412 57.1577 21.2414 57.1358 22.4928C57.1273 22.9709 57.2691 23.4394 57.541 23.8309C57.7441 24.1251 58.0134 24.3664 58.3267 24.5351C58.6401 24.7038 58.9885 24.7951 59.3436 24.8014C59.5045 24.8044 59.6876 24.7707 59.8832 24.7115C59.7614 24.8771 59.6676 25.0394 59.6151 25.193C59.4995 25.5321 59.4652 25.8941 59.515 26.2492C59.5648 26.6043 59.6972 26.9424 59.9014 27.2357C60.1727 27.6279 60.5603 27.9228 61.0083 28.0779C62.1799 28.4856 63.4611 27.854 63.8644 26.6708C63.9169 26.5168 63.9418 26.3306 63.9467 26.1242C64.0648 26.2926 64.1887 26.4331 64.3172 26.5309C64.5525 26.711 64.8208 26.8422 65.1066 26.9168C65.3924 26.9915 65.69 27.0081 65.9823 26.9658C66.2748 26.9253 66.5565 26.8265 66.811 26.6752C67.0655 26.5239 67.2877 26.323 67.4648 26.0843V26.0843Z" fill="#AFECFF"/>
<path d="M60.8993 18.6387C61.4535 16.4969 59.079 14.8312 58.1805 14.2883C58.3365 13.3884 58.6885 10.4358 56.8236 9.3454C54.9697 8.26149 52.635 10.0214 51.9296 10.6176C51.8592 10.5731 51.788 10.5299 51.7161 10.4879C50.785 9.94349 48.4461 8.84669 46.8427 10.4158C45.1284 12.0929 46.1403 14.7107 46.5253 15.5372C45.8697 16.154 43.9793 18.1725 44.7586 20.3188C44.973 20.9108 45.3693 21.3788 45.9374 21.7107C47.1616 22.4265 48.8549 22.3112 49.4974 22.2342C49.799 22.8109 50.6605 24.2929 51.8928 25.0133C52.4 25.3099 52.9177 25.4467 53.4325 25.4197C55.5294 25.3099 56.444 22.3542 56.6727 21.4595C57.5415 21.338 60.3429 20.785 60.8993 18.6387V18.6387Z" fill="#FFC6C5"/>
<path fill-rule="evenodd" clip-rule="evenodd" d="M61.8842 20.6324C61.8602 20.5533 61.8519 20.4701 61.8598 20.3877C61.8676 20.3053 61.8915 20.2253 61.9299 20.1522C61.9684 20.0791 62.0208 20.0144 62.084 19.9617C62.1473 19.909 62.2202 19.8695 62.2985 19.8453C62.3769 19.8211 62.4593 19.8127 62.5408 19.8206C62.6224 19.8285 62.7017 19.8526 62.774 19.8915C62.8464 19.9304 62.9105 19.9832 62.9626 20.0471C63.0148 20.111 63.054 20.1846 63.0779 20.2638C63.1784 20.5969 62.9777 22.0887 62.9777 22.0887C62.9777 22.0887 61.9847 20.9655 61.8842 20.6324V20.6324ZM60.9148 23.1628C60.8329 23.1613 60.752 23.1436 60.6769 23.1106C60.6017 23.0776 60.5337 23.0299 60.4768 22.9704C60.4198 22.9108 60.3751 22.8405 60.345 22.7635C60.315 22.6865 60.3003 22.6042 60.3017 22.5215C60.3031 22.4387 60.3207 22.357 60.3534 22.2811C60.3861 22.2052 60.4333 22.1365 60.4922 22.079C60.5512 22.0215 60.6208 21.9763 60.697 21.946C60.7733 21.9156 60.8547 21.9008 60.9367 21.9022C61.2814 21.9084 62.6242 22.5626 62.6242 22.5626C62.6242 22.5626 61.2595 23.1689 60.9148 23.1628ZM63.5325 22.2819C63.5325 22.2819 64.2838 20.9812 64.5662 20.7815C64.7018 20.6856 64.8696 20.648 65.0326 20.677C65.1956 20.7061 65.3406 20.7993 65.4355 20.9362C65.5305 21.0732 65.5677 21.2426 65.5389 21.4073C65.5102 21.5719 65.4179 21.7183 65.2823 21.8142C64.9999 22.0139 63.5325 22.2819 63.5325 22.2819V22.2819ZM62.2045 25.2665C62.048 25.212 61.9194 25.097 61.8468 24.9467C61.7743 24.7964 61.7638 24.6232 61.8177 24.4651C61.9297 24.136 62.961 23.0481 62.961 23.0481C62.961 23.0481 63.1104 24.5467 62.9984 24.8761C62.9443 25.0341 62.8303 25.164 62.6815 25.2372C62.5326 25.3104 62.3611 25.321 62.2045 25.2665V25.2665ZM64.5034 24.4108C64.2279 24.2013 63.5225 22.8748 63.5225 22.8748C63.5225 22.8748 64.9792 23.1944 65.2547 23.4039C65.3201 23.4537 65.3752 23.516 65.4168 23.5874C65.4584 23.6587 65.4857 23.7376 65.4971 23.8196C65.5085 23.9016 65.5038 23.985 65.4833 24.0652C65.4628 24.1453 65.4268 24.2206 65.3775 24.2867C65.3282 24.3528 65.2664 24.4085 65.1958 24.4505C65.1252 24.4925 65.0471 24.5201 64.9659 24.5316C64.8847 24.5431 64.8021 24.5384 64.7227 24.5177C64.6434 24.4969 64.5688 24.4606 64.5034 24.4108V24.4108Z" fill="#2C063F"/>
<path fill-rule="evenodd" clip-rule="evenodd" d="M53.0339 16.7398C53.0339 16.7398 54.1529 19.2512 53.1411 19.4113C52.1286 19.5711 52.6977 16.7763 52.6977 16.7763C52.6977 16.7763 50.5382 18.6187 50.2227 17.7051C49.9072 16.7914 52.5613 16.4638 52.5613 16.4638C52.5613 16.4638 50.1359 15.0244 50.9236 14.3668C51.7113 13.7092 52.8113 16.2353 52.8113 16.2353C52.8113 16.2353 53.4016 13.4995 54.275 14.0104C55.1484 14.5211 53.1037 16.4061 53.1037 16.4061C53.1037 16.4061 55.7994 16.1025 55.6452 17.1275C55.4918 18.1525 53.0339 16.7398 53.0339 16.7398Z" fill="#2C063F"/>
<ellipse cx="50.5876" cy="57.6668" rx="3.52901" ry="1.187" fill="#FF6553"/>
</g>
<g filter="url(#filter0_d_1_350)">
<rect x="54" y="67" width="24" height="24" rx="12" fill="#D8FFB5"/>
<g clip-path="url(#clip0_1_350)">
<path d="M66 91C72.6165 91 78 85.617 78 79C78 72.383 72.6165 67 66 67C59.3835 67 54 72.383 54 79C54 85.617 59.3835 91 66 91Z" fill="#2C063F"/>
<path d="M76.6663 79C76.6663 73.1193 71.8821 68.3339 66.0001 68.3339C60.119 68.3339 55.3348 73.1185 55.3348 79C55.3348 84.8815 60.1181 89.6661 66.0001 89.6661C71.8821 89.6661 76.6663 84.8807 76.6663 79Z" fill="#D8FFB5"/>
<path d="M67.0438 68.3883C67.8349 68.6657 67.6297 71.7622 66.172 71.4821C64.7131 71.2047 64.795 69.9071 63.8174 69.6297C63.253 69.4688 62.7747 68.5002 63.1124 67.4469C64.1226 67.1649 65.1699 67 66.2551 67C66.4649 67 66.6695 67.0238 66.8758 67.0351C66.4771 67.5217 66.5306 68.2082 67.0444 68.389L67.0438 68.3883Z" fill="#2C063F"/>
<path d="M75.4368 81.7685C75.4368 80.9411 75.5737 80.0202 76.4649 79.2868C77.3537 78.5514 77.4896 78.2561 77.011 77.6142C76.5334 76.9722 73.9306 77.0053 73.7956 76.1228C73.6578 75.2413 72.7079 74.2095 70.7832 74.0635C69.6226 73.9736 69.6201 73.7682 69.0975 72.9702C68.5754 72.1717 70.3041 72.1502 70.6453 71.3538C70.988 70.5584 71.6724 70.0168 71.8083 70.6772C71.9457 71.3396 72.5285 72.4722 73.3165 71.3543C73.5444 71.0307 73.5967 70.4465 73.3278 70C76.0978 72.1255 77.9232 75.5806 78 79.4907C77.9237 79.571 77.8514 79.653 77.7644 79.726C76.1907 81.0488 75.4368 82.5949 75.4368 81.7675V81.7685Z" fill="#2C063F"/>
<path d="M67.9079 88.0655C66.5775 88.0031 66.6609 87.0891 66.6609 86.7229C66.6609 86.3568 64.2404 86.2561 68.6636 84.5979C68.6636 84.5979 68.9962 83.7322 69.7478 83.3051C70.4982 82.8783 71.2498 82.5431 71.7505 82.3753C72.25 82.2066 72.8371 82.5196 73.9868 82.024C74.3004 81.888 74.5876 82.3278 74.9214 83.4267C75.2552 84.5251 74.5036 85.5024 73.0856 86.6009C73.0856 86.6009 72.7518 87.0267 72.5861 88.1269C72.5569 88.3213 72.4991 88.528 72.4175 88.7389C71.7022 89.0414 70.9488 89.296 70.1609 89.5C70.0721 89.2781 69.9231 89.0593 69.665 88.8588C68.3287 87.8218 69.2388 88.1274 67.9079 88.0668V88.0655Z" fill="#2C063F"/>
<path d="M54.0893 78.0128C54.6078 77.8328 55.3892 77.4953 56.1938 77.2624C58.0038 76.7401 57.6937 75.7929 59.9988 76.55C62.3041 77.3089 62.3321 77.7715 63.1574 80.3505C63.9839 82.9288 60.7427 83.2908 59.5018 83.5318C58.2609 83.7715 59.0955 85.1311 59.8913 85.8298C60.5892 86.442 62.0442 87.8931 62.358 89.5626C57.7674 87.632 54.4147 83.2706 54.0893 78.0128Z" fill="#2C063F"/>
</g>
<rect x="54.5" y="67.5" width="23" height="23" rx="11.5" stroke="#2C063F"/>
</g>
<g filter="url(#filter1_d_1_350)">
<circle cx="13" cy="36" r="12" fill="#B9FFF2"/>
<circle cx="13" cy="36" r="11.5" stroke="#2C063F"/>
</g>
<g clip-path="url(#clip1_1_350)">
<path d="M13.302 34.2429C11.4649 34.2429 9.36816 36.669 9.36816 38.7964C9.36816 39.9039 10.3359 40.8 11.5318 40.8C11.9684 40.8109 12.3933 40.6871 12.7434 40.443C13.0659 40.1916 13.538 40.1916 13.8606 40.443C14.2107 40.6871 14.6355 40.8109 15.0722 40.8C16.2681 40.8 17.2358 39.9039 17.2358 38.7964C17.2358 36.669 15.1391 34.2429 13.302 34.2429Z" fill="#2C063F"/>
<path d="M9.74973 34.8512C9.85988 34.1044 9.36422 33.3941 8.58533 33.1792C8.24308 33.1027 7.88511 33.1719 7.60187 33.3613C7.25963 33.6017 7.04327 33.966 7.0118 34.3631C6.90165 35.1099 7.39731 35.8202 8.17621 36.0352C8.26669 36.0534 8.3611 36.0643 8.45551 36.0643C8.70727 36.0643 8.9551 35.9914 9.15966 35.853C9.5019 35.6126 9.71826 35.2483 9.74973 34.8512Z" fill="#2C063F"/>
<path d="M19.5843 34.3631C19.5528 33.966 19.3364 33.6017 18.9942 33.3613C18.711 33.1719 18.353 33.1063 18.0107 33.1791C17.2318 33.3977 16.7401 34.1044 16.8463 34.8512C16.8778 35.2483 17.0942 35.6126 17.4364 35.853C17.641 35.9914 17.8888 36.0643 18.1406 36.0643C18.235 36.0643 18.3294 36.0534 18.4199 36.0351C19.1988 35.8166 19.6905 35.1099 19.5843 34.3631Z" fill="#2C063F"/>
<path d="M11.1305 33.4851C11.221 33.5034 11.3154 33.5143 11.4098 33.5143C11.6616 33.5143 11.9094 33.4414 12.114 33.303C12.4562 33.0626 12.6726 32.6983 12.704 32.3012C12.8142 31.5544 12.3185 30.8441 11.5396 30.6291C11.1974 30.5526 10.8394 30.6219 10.5562 30.8113C10.2139 31.0517 9.99756 31.416 9.96609 31.8131C9.85595 32.5599 10.3516 33.2702 11.1305 33.4851Z" fill="#2C063F"/>
<path d="M14.49 33.303C14.6945 33.4414 14.9424 33.5143 15.1941 33.5143C15.2885 33.5143 15.383 33.5034 15.4734 33.4851C16.2523 33.2666 16.7441 32.5599 16.6378 31.8131C16.6064 31.416 16.39 31.0517 16.0478 30.8113C15.7645 30.6219 15.4066 30.5526 15.0643 30.6291C14.2854 30.8477 13.7937 31.5544 13.8999 32.3012C13.9314 32.6983 14.1477 33.0626 14.49 33.303Z" fill="#2C063F"/>
</g>
<g filter="url(#filter2_d_1_350)">
<rect x="62" width="24" height="24" rx="12" fill="#FE6C6C"/>
<path d="M81.913 14.4347C81.913 14.8 81.6695 15.0434 81.3043 15.0434H78.0434C77.4912 15.0434 77.0434 15.4912 77.0434 16.0434V19.3043C77.0434 19.6695 76.8 19.913 76.4347 19.913H71.5652C71.2 19.913 70.9565 19.6695 70.9565 19.3043V16.0434C70.9565 15.4912 70.5088 15.0434 69.9565 15.0434H66.6956C66.3304 15.0434 66.0869 14.8 66.0869 14.4347V9.56518C66.0869 9.19996 66.3304 8.95648 66.6956 8.95648H69.9565C70.5088 8.95648 70.9565 8.50876 70.9565 7.95648V4.69561C70.9565 4.33039 71.2 4.08691 71.5652 4.08691H76.4347C76.8 4.08691 77.0434 4.33039 77.0434 4.69561V7.95648C77.0434 8.50876 77.4912 8.95648 78.0434 8.95648H81.3043C81.6695 8.95648 81.913 9.19996 81.913 9.56518V14.4347Z" fill="#2C063F"/>
<rect x="62.5" y="0.5" width="23" height="23" rx="11.5" stroke="#2C063F"/>
</g>
<defs>
<filter id="filter0_d_1_350" x="53" y="67" width="25" height="25" filterUnits="userSpaceOnUse" color-interpolation-filters="sRGB">
<feFlood flood-opacity="0" result="BackgroundImageFix"/>
<feColorMatrix in="SourceAlpha" type="matrix" values="0 0 0 0 0 0 0 0 0 0 0 0 0 0 0 0 0 0 127 0" result="hardAlpha"/>
<feOffset dx="-1" dy="1"/>
<feColorMatrix type="matrix" values="0 0 0 0 0.172549 0 0 0 0 0.0235294 0 0 0 0 0.247059 0 0 0 1 0"/>
<feBlend mode="normal" in2="BackgroundImageFix" result="effect1_dropShadow_1_350"/>
<feBlend mode="normal" in="SourceGraphic" in2="effect1_dropShadow_1_350" result="shape"/>
</filter>
<filter id="filter1_d_1_350" x="0" y="24" width="25" height="25" filterUnits="userSpaceOnUse" color-interpolation-filters="sRGB">
<feFlood flood-opacity="0" result="BackgroundImageFix"/>
<feColorMatrix in="SourceAlpha" type="matrix" values="0 0 0 0 0 0 0 0 0 0 0 0 0 0 0 0 0 0 127 0" result="hardAlpha"/>
<feOffset dx="-1" dy="1"/>
<feColorMatrix type="matrix" values="0 0 0 0 0.172549 0 0 0 0 0.0235294 0 0 0 0 0.247059 0 0 0 1 0"/>
<feBlend mode="normal" in2="BackgroundImageFix" result="effect1_dropShadow_1_350"/>
<feBlend mode="normal" in="SourceGraphic" in2="effect1_dropShadow_1_350" result="shape"/>
</filter>
<filter id="filter2_d_1_350" x="61" y="0" width="25" height="25" filterUnits="userSpaceOnUse" color-interpolation-filters="sRGB">
<feFlood flood-opacity="0" result="BackgroundImageFix"/>
<feColorMatrix in="SourceAlpha" type="matrix" values="0 0 0 0 0 0 0 0 0 0 0 0 0 0 0 0 0 0 127 0" result="hardAlpha"/>
<feOffset dx="-1" dy="1"/>
<feColorMatrix type="matrix" values="0 0 0 0 0.172549 0 0 0 0 0.0235294 0 0 0 0 0.247059 0 0 0 1 0"/>
<feBlend mode="normal" in2="BackgroundImageFix" result="effect1_dropShadow_1_350"/>
<feBlend mode="normal" in="SourceGraphic" in2="effect1_dropShadow_1_350" result="shape"/>
</filter>
<linearGradient id="paint0_linear_1_350" x1="130.698" y1="36.1959" x2="130.698" y2="42.7344" gradientUnits="userSpaceOnUse">
<stop stop-color="white" stop-opacity="0.5"/>
<stop offset="0.705" stop-opacity="0.5"/>
</linearGradient>
<linearGradient id="paint1_linear_1_350" x1="130.697" y1="36.1959" x2="130.697" y2="42.7344" gradientUnits="userSpaceOnUse">
<stop stop-color="white" stop-opacity="0.5"/>
<stop offset="0.705" stop-opacity="0.5"/>
</linearGradient>
<clipPath id="clip0_1_350">
<rect width="24" height="24" fill="white" transform="matrix(-1 0 0 1 78 67)"/>
</clipPath>
<clipPath id="clip1_1_350">
<rect width="12.6" height="10.2" fill="white" transform="translate(7 30.6)"/>
</clipPath>
</defs>
</svg>
