<svg width="25" height="24" viewBox="0 0 25 24" fill="none" xmlns="http://www.w3.org/2000/svg">
<path fill-rule="evenodd" clip-rule="evenodd" d="M7.53816 0.0722133C8.81804 0.0138139 9.22674 0 12.4857 0C15.7447 0 16.1534 0.0138139 17.4333 0.0722133C18.7106 0.13047 19.5829 0.333343 20.3462 0.630008C21.1353 0.936629 21.8045 1.34695 22.4716 2.01406C23.1388 2.68123 23.5491 3.35044 23.8557 4.1395C24.1524 4.90283 24.3553 5.77511 24.4135 7.05242C24.4719 8.33234 24.4857 8.741 24.4857 12C24.4857 15.259 24.4719 15.6677 24.4135 16.9476C24.3553 18.2248 24.1524 19.0972 23.8557 19.8605C23.5491 20.6496 23.1388 21.3188 22.4716 21.9859C21.8045 22.6531 21.1353 23.0633 20.3462 23.37C19.5829 23.6667 18.7106 23.8695 17.4333 23.9278C16.1534 23.9862 15.7447 24 12.4857 24C9.22674 24 8.81804 23.9862 7.53816 23.9278C6.26085 23.8695 5.38857 23.6667 4.62524 23.37C3.83618 23.0633 3.16692 22.6531 2.4998 21.9859C1.83264 21.3188 1.42237 20.6495 1.1157 19.8605C0.819036 19.0972 0.61621 18.2248 0.557906 16.9476C0.499507 15.6677 0.485741 15.259 0.485741 12C0.485741 8.74095 0.499507 8.33234 0.557906 7.05242C0.61621 5.77511 0.819036 4.90283 1.1157 4.1395C1.42237 3.35044 1.83264 2.68123 2.4998 2.01406C3.16692 1.34695 3.83618 0.936629 4.62524 0.630008C5.38857 0.333343 6.26085 0.13047 7.53816 0.0722133ZM17.3347 2.23208C16.0694 2.17435 15.6899 2.16216 12.4857 2.16216C9.28156 2.16216 8.90206 2.17435 7.63666 2.23208C6.46672 2.28548 5.83128 2.48097 5.40844 2.64531C4.84836 2.863 4.44856 3.12303 4.02867 3.54297C3.60877 3.96287 3.34869 4.36261 3.131 4.92274C2.96671 5.34559 2.77122 5.98098 2.71783 7.15097C2.66009 8.41632 2.6479 8.79587 2.6479 12C2.6479 15.2041 2.66009 15.5837 2.71783 16.849C2.77122 18.019 2.96671 18.6544 3.131 19.0773C3.34869 19.6373 3.60877 20.0371 4.02867 20.457C4.44856 20.877 4.84836 21.137 5.40844 21.3547C5.83128 21.519 6.46672 21.7145 7.63671 21.7679C8.90187 21.8256 9.28133 21.8378 12.4857 21.8378C15.6901 21.8378 16.0696 21.8256 17.3347 21.7679C18.5047 21.7145 19.1401 21.519 19.563 21.3547C20.1231 21.137 20.5229 20.877 20.9428 20.457C21.3627 20.0371 21.6227 19.6373 21.8404 19.0773C22.0047 18.6544 22.2002 18.019 22.2536 16.849C22.3113 15.5837 22.3235 15.2041 22.3235 12C22.3235 8.79587 22.3113 8.41632 22.2536 7.15097C22.2002 5.98098 22.0047 5.34559 21.8404 4.92274C21.6227 4.36261 21.3627 3.96287 20.9428 3.54293C20.5229 3.12303 20.1231 2.863 19.563 2.64531C19.1401 2.48097 18.5047 2.28548 17.3347 2.23208Z" fill="white"/>
<path fill-rule="evenodd" clip-rule="evenodd" d="M6.32353 12C6.32353 8.5967 9.08245 5.83783 12.4857 5.83783C15.889 5.83783 18.6478 8.5967 18.6478 12C18.6478 15.4033 15.889 18.1621 12.4857 18.1621C9.08245 18.1621 6.32353 15.4033 6.32353 12ZM8.48569 12C8.48569 14.2091 10.2766 16 12.4857 16C14.6948 16 16.4857 14.2091 16.4857 12C16.4857 9.79084 14.6948 7.99999 12.4857 7.99999C10.2766 7.99999 8.48569 9.79084 8.48569 12Z" fill="white"/>
<path d="M20.3304 5.59394C20.3304 6.38899 19.686 7.03347 18.8909 7.03347C18.0959 7.03347 17.4513 6.38899 17.4513 5.59394C17.4513 4.7989 18.0959 4.15442 18.8909 4.15442C19.686 4.15442 20.3304 4.7989 20.3304 5.59394" fill="white"/>
</svg>
