<svg width="24" height="24" viewBox="0 0 24 24" fill="none" xmlns="http://www.w3.org/2000/svg">
<path fill-rule="evenodd" clip-rule="evenodd" d="M2.88556 5.77885C1.28816 5.77885 0 4.4846 0 2.88896C0 1.29425 1.28816 0 2.88556 0C4.47642 0 5.7683 1.29425 5.7683 2.88896C5.7683 4.4846 4.47642 5.77885 2.88556 5.77885ZM24 24H19.0272V16.2046C19.0272 14.3449 18.9955 11.9533 16.4434 11.9533C13.855 11.9533 13.461 13.9801 13.461 16.0712V24H8.49369V7.96887H13.2607V10.1608H13.3287C13.9919 8.90013 15.6144 7.57136 18.0343 7.57136C23.0695 7.57136 24 10.8905 24 15.2081V24ZM5.3734 24H0.394939V7.96894H5.3734V24Z" fill="white"/>
</svg>
