<svg width="30" height="24" viewBox="0 0 30 24" fill="none" xmlns="http://www.w3.org/2000/svg">
<g clip-path="url(#clip0_1_581)">
<path d="M29.4858 2.8416C28.3814 3.3295 27.2112 3.65162 26.0129 3.79716C27.2767 3.03991 28.2212 1.84637 28.6687 0.440406C27.4829 1.14721 26.1846 1.64474 24.8305 1.91093C22.5431 -0.528932 18.7155 -0.648253 16.2812 1.64424C15.0662 2.78849 14.3764 4.38464 14.3746 6.05563C14.3754 6.52113 14.4272 6.98514 14.5294 7.43936C9.67209 7.20138 5.14211 4.9132 2.06158 1.14156C0.467586 3.90138 1.2794 7.42708 3.91867 9.20777C2.95751 9.17723 2.01737 8.91784 1.17625 8.45085V8.5315C1.1784 11.4161 3.20836 13.8996 6.02959 14.4695C5.13896 14.7091 4.20595 14.7452 3.29959 14.5751C4.08905 17.0441 6.35892 18.7355 8.94538 18.7818C6.80366 20.4605 4.16141 21.3694 1.44233 21.3629C0.960338 21.3624 0.478514 21.3334 9.53674e-07 21.2761C2.76809 23.0634 5.993 24.0096 9.2858 23.9999C20.4289 23.9999 26.4894 14.7672 26.4894 6.7631V5.97514C27.6657 5.117 28.6801 4.05605 29.4857 2.84176L29.4858 2.8416Z" fill="white"/>
</g>
<defs>
<clipPath id="clip0_1_581">
<rect width="29.4857" height="24" fill="white"/>
</clipPath>
</defs>
</svg>
