<svg width="42" height="41" viewBox="0 0 42 41" fill="none" xmlns="http://www.w3.org/2000/svg">
<g filter="url(#filter0_d_1_382)">
<circle cx="21.5" cy="20" r="19.5" fill="white" stroke="#2C063F"/>
<g clip-path="url(#clip0_1_382)">
<path d="M31 15.5C30.955 15.5 30.91 15.51 30.865 15.515C29.41 11.6 25.675 9 21.5 9C20.67 9 20 9.67 20 10.5C20 11.33 20.67 12 21.5 12C22.05 12 22.5 11.55 22.5 11C22.5 10.725 22.725 10.5 23 10.5C23.275 10.5 23.5 10.725 23.5 11C23.5 12.105 22.605 13 21.5 13C20.12 13 19 11.88 19 10.5C19 10.055 19.125 9.62 19.355 9.235C16.04 9.97 13.325 12.335 12.14 15.515C12.095 15.515 12.05 15.5 12.005 15.5C10.625 15.495 9.5 16.61 9.5 17.99C9.5 19.225 10.4 20.275 11.62 20.46C12.42 25.915 17.49 29.695 22.95 28.895C27.315 28.255 30.745 24.825 31.385 20.46C32.745 20.25 33.685 18.98 33.475 17.62C33.29 16.4 32.24 15.5 31.005 15.5H31ZM16.5 17.25C16.5 16.56 17.06 16 17.75 16C18.44 16 19 16.56 19 17.25C19 17.94 18.44 18.5 17.75 18.5C17.06 18.5 16.5 17.94 16.5 17.25ZM24.385 23.76C22.585 24.745 20.41 24.745 18.615 23.76C18.37 23.635 18.27 23.335 18.395 23.09C18.52 22.845 18.82 22.745 19.065 22.87C19.075 22.875 19.085 22.88 19.095 22.885C20.595 23.69 22.405 23.69 23.905 22.885C24.14 22.745 24.45 22.82 24.59 23.06C24.73 23.295 24.655 23.605 24.415 23.745C24.405 23.75 24.395 23.755 24.385 23.76ZM25.25 18.5C24.56 18.5 24 17.94 24 17.25C24 16.56 24.56 16 25.25 16C25.94 16 26.5 16.56 26.5 17.25C26.5 17.94 25.94 18.5 25.25 18.5Z" fill="#2C063F"/>
</g>
</g>
<defs>
<filter id="filter0_d_1_382" x="0" y="0" width="42" height="41" filterUnits="userSpaceOnUse" color-interpolation-filters="sRGB">
<feFlood flood-opacity="0" result="BackgroundImageFix"/>
<feColorMatrix in="SourceAlpha" type="matrix" values="0 0 0 0 0 0 0 0 0 0 0 0 0 0 0 0 0 0 127 0" result="hardAlpha"/>
<feOffset dx="-1" dy="1"/>
<feColorMatrix type="matrix" values="0 0 0 0 0.172549 0 0 0 0 0.0235294 0 0 0 0 0.247059 0 0 0 1 0"/>
<feBlend mode="normal" in2="BackgroundImageFix" result="effect1_dropShadow_1_382"/>
<feBlend mode="normal" in="SourceGraphic" in2="effect1_dropShadow_1_382" result="shape"/>
</filter>
<clipPath id="clip0_1_382">
<rect width="24" height="20" fill="white" transform="translate(9.5 9)"/>
</clipPath>
</defs>
</svg>
