<svg width="41" height="41" viewBox="0 0 41 41" fill="none" xmlns="http://www.w3.org/2000/svg">
<g filter="url(#filter0_d_1_377)">
<circle cx="21" cy="20" r="20" fill="white"/>
<circle cx="21" cy="20" r="19.5" stroke="#2C063F"/>
</g>
<g clip-path="url(#clip0_1_377)">
<path d="M16.1552 15.7143C17.7549 15.7143 19.0517 14.4351 19.0517 12.8571C19.0517 11.2792 17.7549 10 16.1552 10C14.5555 10 13.2586 11.2792 13.2586 12.8571C13.2586 14.4351 14.5555 15.7143 16.1552 15.7143Z" fill="#2C063F"/>
<path d="M24.8448 15.7143C26.4445 15.7143 27.7414 14.4351 27.7414 12.8571C27.7414 11.2792 26.4445 10 24.8448 10C23.2451 10 21.9483 11.2792 21.9483 12.8571C21.9483 14.4351 23.2451 15.7143 24.8448 15.7143Z" fill="#2C063F"/>
<path d="M29.9174 20.2678C29.6893 18.2821 27.984 16.7857 25.96 16.7857H23.7297C22.6797 16.7857 21.6695 17.2 20.9272 17.9357C21.1155 18.3714 21.1662 18.8571 21.0721 19.325C20.8222 18.8678 20.5217 18.4393 20.1814 18.0464C19.4319 17.2428 18.3747 16.7893 17.2667 16.7893H15.0364C13.0124 16.7893 11.3071 18.2857 11.079 20.2714L10 29.6036C9.97828 29.8 10.1195 29.975 10.3186 30C10.3331 30 10.344 30 10.3584 30H17.2378V27.7286L13.8886 24.4214C13.5338 24.0536 13.5519 23.475 13.9248 23.125C14.2724 22.8 14.8119 22.7893 15.174 23.1L18.8562 26.4286H22.1329L25.8152 23.0964C26.2026 22.7643 26.7891 22.8036 27.1259 23.1857C27.4409 23.5428 27.43 24.075 27.1005 24.4178L23.7514 27.725V29.9964H30.6307C30.8298 29.9964 30.9928 29.8357 30.9928 29.6393C30.9928 29.625 30.9928 29.6107 30.9928 29.6L29.9102 20.2643L29.9174 20.2678ZM20.5 25.3571C19.0988 25.3571 17.9655 24.2393 17.9655 22.8571C17.9655 21.475 19.0988 20.3571 20.5 20.3571C21.9012 20.3571 23.0345 21.475 23.0345 22.8571C23.0345 24.2357 21.8976 25.3571 20.5 25.3571Z" fill="#2C063F"/>
</g>
<defs>
<filter id="filter0_d_1_377" x="0" y="0" width="41" height="41" filterUnits="userSpaceOnUse" color-interpolation-filters="sRGB">
<feFlood flood-opacity="0" result="BackgroundImageFix"/>
<feColorMatrix in="SourceAlpha" type="matrix" values="0 0 0 0 0 0 0 0 0 0 0 0 0 0 0 0 0 0 127 0" result="hardAlpha"/>
<feOffset dx="-1" dy="1"/>
<feColorMatrix type="matrix" values="0 0 0 0 0.172549 0 0 0 0 0.0235294 0 0 0 0 0.247059 0 0 0 1 0"/>
<feBlend mode="normal" in2="BackgroundImageFix" result="effect1_dropShadow_1_377"/>
<feBlend mode="normal" in="SourceGraphic" in2="effect1_dropShadow_1_377" result="shape"/>
</filter>
<clipPath id="clip0_1_377">
<rect width="21" height="20" fill="white" transform="translate(10 10)"/>
</clipPath>
</defs>
</svg>
