<svg width="41" height="41" viewBox="0 0 41 41" fill="none" xmlns="http://www.w3.org/2000/svg">
<g filter="url(#filter0_d_1_371)">
<circle cx="21" cy="20" r="20" fill="white"/>
<circle cx="21" cy="20" r="19.5" stroke="#2C063F"/>
</g>
<g clip-path="url(#clip0_1_371)">
<path d="M23.4975 11.9529C19.9425 10.6849 16.0575 10.6849 12.5025 11.9529C12.2025 12.0579 12 12.343 12 12.6657V20.0037C12 23.3126 14.685 25.9987 18 25.9987C21.315 25.9987 24 23.3126 24 19.9962V12.6657C24 12.3505 23.7975 12.0654 23.4975 11.9604V11.9529ZM14.25 16.995C14.25 16.5823 14.5875 16.2447 15 16.2447H15.75C16.1625 16.2447 16.5 16.5823 16.5 16.995C16.5 17.4077 16.1625 17.7453 15.75 17.7453H15C14.5875 17.7453 14.25 17.4077 14.25 16.995ZM18 23.7478C16.755 23.7478 15.75 22.7424 15.75 21.4969H20.25C20.25 22.7424 19.245 23.7478 18 23.7478ZM21 17.7453H20.25C19.8375 17.7453 19.5 17.4077 19.5 16.995C19.5 16.5823 19.8375 16.2447 20.25 16.2447H21C21.4125 16.2447 21.75 16.5823 21.75 16.995C21.75 17.4077 21.4125 17.7453 21 17.7453Z" fill="#2C063F"/>
<path d="M29.4975 14.9542C28.2075 14.4965 26.865 14.2038 25.5 14.0763V20.0038C25.5 19.5911 25.8375 19.2535 26.25 19.2535H27C27.4125 19.2535 27.75 19.5911 27.75 20.0038C27.75 20.4164 27.4125 20.7541 27 20.7541H26.25C25.8375 20.7541 25.5 20.4164 25.5 20.0038C25.5 21.6319 24.9675 23.2076 23.985 24.5056H24C25.245 24.5056 26.25 25.5111 26.25 26.7566H21.21C20.76 26.9817 20.2875 27.1542 19.8 27.2818C22.1625 29.6078 25.9575 29.5778 28.275 27.2143C29.3775 26.0888 30 24.5807 30 23.005V15.6595C30 15.3443 29.7975 15.0592 29.4975 14.9542Z" fill="#2C063F"/>
</g>
<defs>
<filter id="filter0_d_1_371" x="0" y="0" width="41" height="41" filterUnits="userSpaceOnUse" color-interpolation-filters="sRGB">
<feFlood flood-opacity="0" result="BackgroundImageFix"/>
<feColorMatrix in="SourceAlpha" type="matrix" values="0 0 0 0 0 0 0 0 0 0 0 0 0 0 0 0 0 0 127 0" result="hardAlpha"/>
<feOffset dx="-1" dy="1"/>
<feColorMatrix type="matrix" values="0 0 0 0 0.172549 0 0 0 0 0.0235294 0 0 0 0 0.247059 0 0 0 1 0"/>
<feBlend mode="normal" in2="BackgroundImageFix" result="effect1_dropShadow_1_371"/>
<feBlend mode="normal" in="SourceGraphic" in2="effect1_dropShadow_1_371" result="shape"/>
</filter>
<clipPath id="clip0_1_371">
<rect width="18" height="18" fill="white" transform="translate(12 11)"/>
</clipPath>
</defs>
</svg>
