<svg width="41" height="41" viewBox="0 0 41 41" fill="none" xmlns="http://www.w3.org/2000/svg">
<g filter="url(#filter0_d_1_392)">
<circle cx="21" cy="20" r="20" fill="white"/>
<circle cx="21" cy="20" r="19.5" stroke="#2C063F"/>
</g>
<g clip-path="url(#clip0_1_392)">
<path d="M29.375 17.9259H28.125V23.5926H29.375V17.9259Z" fill="#2C063F"/>
<path d="M20.7938 22.157C20.2938 22.39 19.7125 22.3963 19.2062 22.157L13.125 19.2985V24.2222C13.125 26.3378 16.1437 28 20 28C23.8563 28 26.875 26.3378 26.875 24.2222V19.2985L20.7938 22.157Z" fill="#2C063F"/>
<path d="M29.6375 15.4641L20.2625 11.0567C20.0938 10.9811 19.9 10.9811 19.7312 11.0567L10.3625 15.4641C10.1437 15.5648 10 15.7915 10 16.037C10 16.2826 10.1375 16.503 10.3625 16.61L19.7375 21.0174C19.9062 21.093 20.1 21.093 20.2688 21.0174L29.6438 16.61C29.8625 16.5093 30.0062 16.2826 30.0062 16.037C30.0062 15.7915 29.8625 15.5711 29.6438 15.4641H29.6375Z" fill="#2C063F"/>
</g>
<defs>
<filter id="filter0_d_1_392" x="0" y="0" width="41" height="41" filterUnits="userSpaceOnUse" color-interpolation-filters="sRGB">
<feFlood flood-opacity="0" result="BackgroundImageFix"/>
<feColorMatrix in="SourceAlpha" type="matrix" values="0 0 0 0 0 0 0 0 0 0 0 0 0 0 0 0 0 0 127 0" result="hardAlpha"/>
<feOffset dx="-1" dy="1"/>
<feColorMatrix type="matrix" values="0 0 0 0 0.172549 0 0 0 0 0.0235294 0 0 0 0 0.247059 0 0 0 1 0"/>
<feBlend mode="normal" in2="BackgroundImageFix" result="effect1_dropShadow_1_392"/>
<feBlend mode="normal" in="SourceGraphic" in2="effect1_dropShadow_1_392" result="shape"/>
</filter>
<clipPath id="clip0_1_392">
<rect width="20" height="17" fill="white" transform="translate(10 11)"/>
</clipPath>
</defs>
</svg>
