<svg width="42" height="41" viewBox="0 0 42 41" fill="none" xmlns="http://www.w3.org/2000/svg">
<g filter="url(#filter0_d_1_379)">
<rect x="1" width="41" height="40" rx="20" fill="white"/>
<g clip-path="url(#clip0_1_379)">
<path d="M21.5 40C32.8032 40 42 31.0284 42 20C42 8.97164 32.8032 0 21.5 0C10.1968 0 1 8.97164 1 20C1 31.0284 10.1968 40 21.5 40Z" fill="#2C063F"/>
<path d="M39.7215 20C39.7215 10.1989 31.5486 2.22321 21.5001 2.22321C11.4532 2.22321 3.28027 10.1974 3.28027 20C3.28027 29.8026 11.4517 37.7768 21.5001 37.7768C31.5486 37.7768 39.7215 29.8011 39.7215 20Z" fill="white"/>
<path d="M23.2832 2.31388C24.6346 2.77622 24.2841 7.93693 21.7938 7.47018C19.3015 7.00785 19.4415 4.84514 17.7714 4.3828C16.8073 4.11467 15.9901 2.50036 16.567 0.744812C18.2927 0.274753 20.082 0 21.9358 0C22.2942 0 22.6437 0.0397231 22.9962 0.0584814C22.3151 0.869498 22.4064 2.01375 23.2842 2.31498L23.2832 2.31388Z" fill="#2C063F"/>
<path d="M37.6212 24.6142C37.6212 23.2352 37.8551 21.7003 39.3776 20.4781C40.8959 19.2523 41.1281 18.7602 40.3105 17.6903C39.4945 16.6204 35.0481 16.6755 34.8175 15.2046C34.582 13.7354 32.9593 12.0158 29.6712 11.7724C27.6885 11.6227 27.6844 11.2804 26.7916 9.95039C25.8996 8.61955 28.8528 8.58365 29.4357 7.25631C30.0212 5.93072 31.1904 5.02802 31.4226 6.12859C31.6573 7.23267 32.6528 9.12037 33.9991 7.25718C34.3883 6.71784 34.4776 5.74422 34.0183 5C38.7504 8.5425 41.8689 14.301 42 20.8178C41.8697 20.9518 41.7461 21.0883 41.5974 21.21C38.909 23.4147 37.6212 25.9914 37.6212 24.6124V24.6142Z" fill="#2C063F"/>
<path d="M24.7592 35.1091C22.4866 35.0052 22.6291 33.4818 22.6291 32.8715C22.6291 32.2613 18.4941 32.0934 26.0504 29.3299C26.0504 29.3299 26.6185 27.887 27.9025 27.1751C29.1845 26.4639 30.4685 25.9052 31.3238 25.6255C32.1771 25.3443 33.18 25.8659 35.1442 25.0399C35.6798 24.8133 36.1706 25.5463 36.7408 27.3778C37.311 29.2085 36.027 30.8373 33.6046 32.6681C33.6046 32.6681 33.0344 33.3779 32.7513 35.2115C32.7014 35.5356 32.6027 35.8799 32.4632 36.2315C31.2413 36.7357 29.9543 37.16 28.6082 37.5C28.4564 37.1302 28.2019 36.7655 27.761 36.4313C25.4781 34.703 27.033 35.2123 24.7592 35.1113V35.1091Z" fill="#2C063F"/>
<path d="M1.15247 18.3547C2.03828 18.0547 3.3733 17.4922 4.74772 17.104C7.83981 16.2334 7.31007 14.6548 11.248 15.9167C15.1861 17.1815 15.234 17.9525 16.644 22.2508C18.0559 26.548 12.5187 27.1514 10.399 27.553C8.27904 27.9526 9.70482 30.2186 11.0643 31.383C12.2566 32.4033 14.7423 34.8219 15.2783 37.6043C7.43592 34.3867 1.7084 27.1176 1.15247 18.3547Z" fill="#2C063F"/>
</g>
<rect x="1.5" y="0.5" width="40" height="39" rx="19.5" stroke="#2C063F"/>
</g>
<defs>
<filter id="filter0_d_1_379" x="0" y="0" width="42" height="41" filterUnits="userSpaceOnUse" color-interpolation-filters="sRGB">
<feFlood flood-opacity="0" result="BackgroundImageFix"/>
<feColorMatrix in="SourceAlpha" type="matrix" values="0 0 0 0 0 0 0 0 0 0 0 0 0 0 0 0 0 0 127 0" result="hardAlpha"/>
<feOffset dx="-1" dy="1"/>
<feColorMatrix type="matrix" values="0 0 0 0 0.172549 0 0 0 0 0.0235294 0 0 0 0 0.247059 0 0 0 1 0"/>
<feBlend mode="normal" in2="BackgroundImageFix" result="effect1_dropShadow_1_379"/>
<feBlend mode="normal" in="SourceGraphic" in2="effect1_dropShadow_1_379" result="shape"/>
</filter>
<clipPath id="clip0_1_379">
<rect width="41" height="40" fill="white" transform="matrix(-1 0 0 1 42 0)"/>
</clipPath>
</defs>
</svg>
