<svg width="41" height="41" viewBox="0 0 41 41" fill="none" xmlns="http://www.w3.org/2000/svg">
<g filter="url(#filter0_d_1_375)">
<circle cx="21" cy="20" r="20" fill="white"/>
<circle cx="21" cy="20" r="19.5" stroke="#2C063F"/>
</g>
<path d="M28.375 8.75H28.125V9V10.5333V10.7833H28.375H30.8445L28.4363 13.245C27.2684 12.3492 25.8193 11.8167 24.25 11.8167C22.8665 11.8167 21.5759 12.2296 20.4887 12.9389C19.4066 12.2334 18.127 11.8167 16.75 11.8167C12.8829 11.8167 9.75 15.0312 9.75 18.9667C9.75 22.5592 12.3573 25.542 15.75 26.0402V27.9167H13.75H13.5V28.1667V29.7V29.95H13.75H15.75V32V32.25H16H17.5H17.75V32V29.95H19.75H20V29.7V28.1667V27.9167H19.75H17.75V26.0402C21.1427 25.542 23.75 22.5592 23.75 18.9667C23.75 17.3863 23.2409 15.9327 22.3905 14.7497L22.2633 14.5729L22.0707 14.6746C21.5953 14.9257 21.1717 15.2537 20.808 15.6456L20.6696 15.7948L20.7875 15.9606C21.3889 16.8058 21.75 17.8442 21.75 18.9667C21.75 20.2594 21.2799 21.4371 20.504 22.3363C19.7261 21.4335 19.25 20.2586 19.25 18.9667C19.25 16.1402 21.4982 13.85 24.25 13.85C27.0018 13.85 29.25 16.1402 29.25 18.9667C29.25 21.7931 27.0018 24.0833 24.25 24.0833C23.6341 24.0833 23.0455 23.9633 22.4977 23.7547L22.3321 23.6916L22.2178 23.827C21.8736 24.2344 21.4857 24.6013 21.0612 24.924L20.7469 25.1629L21.0973 25.3449C22.046 25.8377 23.1166 26.1205 24.25 26.1205C28.1132 26.1205 31.25 22.906 31.25 18.9705C31.25 17.3662 30.7243 15.8844 29.8481 14.6903L32.25 12.2351V14.7538V15.0038H32.5H34H34.25V14.7538V9.76667C34.25 9.21214 33.8057 8.75 33.25 8.75H28.375ZM17.25 18.9667C17.25 20.722 17.8831 22.3304 18.9173 23.5749C18.2617 23.9008 17.5266 24.0833 16.75 24.0833C13.9982 24.0833 11.75 21.7931 11.75 18.9667C11.75 16.1402 13.9982 13.85 16.75 13.85C17.5263 13.85 18.2582 14.0324 18.9103 14.358C17.8762 15.603 17.25 17.2117 17.25 18.9667Z" fill="#2C063F" stroke="#2C063F" stroke-width="0.5"/>
<defs>
<filter id="filter0_d_1_375" x="0" y="0" width="41" height="41" filterUnits="userSpaceOnUse" color-interpolation-filters="sRGB">
<feFlood flood-opacity="0" result="BackgroundImageFix"/>
<feColorMatrix in="SourceAlpha" type="matrix" values="0 0 0 0 0 0 0 0 0 0 0 0 0 0 0 0 0 0 127 0" result="hardAlpha"/>
<feOffset dx="-1" dy="1"/>
<feColorMatrix type="matrix" values="0 0 0 0 0.172549 0 0 0 0 0.0235294 0 0 0 0 0.247059 0 0 0 1 0"/>
<feBlend mode="normal" in2="BackgroundImageFix" result="effect1_dropShadow_1_375"/>
<feBlend mode="normal" in="SourceGraphic" in2="effect1_dropShadow_1_375" result="shape"/>
</filter>
</defs>
</svg>
