<svg width="42" height="41" viewBox="0 0 42 41" fill="none" xmlns="http://www.w3.org/2000/svg">
<g filter="url(#filter0_d_1_384)">
<rect x="1" width="41" height="40" rx="20" fill="white"/>
<g clip-path="url(#clip0_1_384)">
<path d="M35.4232 24.3599L30.0084 13.0808C29.9768 13.0118 29.9361 12.9553 29.8865 12.9051C29.8865 12.9051 29.8774 12.8926 29.8729 12.8926C29.7961 12.8236 29.7058 12.786 29.62 12.7922H23.2387C23.0761 11.914 22.5794 11.224 21.9471 10.9981V9.02209C21.9471 8.67707 21.7439 8.39478 21.4955 8.39478C21.2471 8.39478 21.0439 8.67707 21.0439 9.02209V10.9918C20.4116 11.2177 19.9148 11.9077 19.7523 12.786H13.371C13.2806 12.786 13.1994 12.8173 13.1226 12.8863C13.1226 12.8863 13.1135 12.8989 13.109 12.8989C13.0594 12.9491 13.0187 13.0055 12.9871 13.0745L7.57677 24.3599C7.5271 24.4602 7.5 24.5857 7.5 24.7049C7.5 27.4901 9.36516 31.6053 13.371 31.6053C17.3768 31.6053 19.2419 27.4901 19.2419 24.7049C19.2419 24.5794 19.2148 24.4602 19.1652 24.3599L14.2155 14.0406H19.7568C19.9194 14.9188 20.4161 15.6089 21.0484 15.8347H21.9516C22.5839 15.6089 23.0806 14.9188 23.2432 14.0406H28.7845L23.8348 24.3599C23.7852 24.4602 23.7581 24.5857 23.7581 24.7049C23.7581 27.4901 25.6232 31.6053 29.629 31.6053C33.6348 31.6053 35.5 27.4901 35.5 24.7049C35.5 24.5794 35.4729 24.4602 35.4232 24.3599ZM17.9458 24.0776H8.79613L13.371 14.5424L17.9458 24.0776ZM25.0542 24.0776L29.629 14.5424L34.2039 24.0776H25.0542Z" fill="#2C063F"/>
</g>
<rect x="1.5" y="0.5" width="40" height="39" rx="19.5" stroke="#2C063F"/>
</g>
<defs>
<filter id="filter0_d_1_384" x="0" y="0" width="42" height="41" filterUnits="userSpaceOnUse" color-interpolation-filters="sRGB">
<feFlood flood-opacity="0" result="BackgroundImageFix"/>
<feColorMatrix in="SourceAlpha" type="matrix" values="0 0 0 0 0 0 0 0 0 0 0 0 0 0 0 0 0 0 127 0" result="hardAlpha"/>
<feOffset dx="-1" dy="1"/>
<feColorMatrix type="matrix" values="0 0 0 0 0.172549 0 0 0 0 0.0235294 0 0 0 0 0.247059 0 0 0 1 0"/>
<feBlend mode="normal" in2="BackgroundImageFix" result="effect1_dropShadow_1_384"/>
<feBlend mode="normal" in="SourceGraphic" in2="effect1_dropShadow_1_384" result="shape"/>
</filter>
<clipPath id="clip0_1_384">
<rect width="28" height="23.2105" fill="white" transform="translate(7.5 8.39478)"/>
</clipPath>
</defs>
</svg>
