<svg width="41" height="41" viewBox="0 0 41 41" fill="none" xmlns="http://www.w3.org/2000/svg">
<g filter="url(#filter0_d_1_386)">
<circle cx="21" cy="20" r="20" fill="white"/>
<circle cx="21" cy="20" r="19.5" stroke="#2C063F"/>
</g>
<g clip-path="url(#clip0_1_386)">
<path d="M21.5033 17.0714C18.4415 17.0714 14.9469 21.115 14.9469 24.6607C14.9469 26.5064 16.5598 28 18.5529 28C19.2807 28.0182 19.9888 27.8118 20.5723 27.405C21.1099 26.9861 21.8967 26.9861 22.4343 27.405C23.0178 27.8118 23.7259 28.0182 24.4536 28C26.4468 28 28.0596 26.5064 28.0596 24.6607C28.0596 21.115 24.5651 17.0714 21.5033 17.0714Z" fill="#2C063F"/>
<path d="M15.5829 18.0853C15.7665 16.8407 14.9404 15.6568 13.6422 15.2986C13.0718 15.1711 12.4752 15.2864 12.0031 15.6021C11.4327 16.0028 11.0721 16.61 11.0197 17.2718C10.8361 18.5164 11.6622 19.7003 12.9603 20.0586C13.1111 20.0889 13.2685 20.1071 13.4259 20.1071C13.8455 20.1071 14.2585 19.9857 14.5994 19.755C15.1698 19.3543 15.5304 18.7471 15.5829 18.0853Z" fill="#2C063F"/>
<path d="M31.9738 17.2718C31.9213 16.61 31.5607 16.0029 30.9903 15.6021C30.5183 15.2864 29.9216 15.1771 29.3512 15.2986C28.0531 15.6629 27.2335 16.8407 27.4106 18.0854C27.463 18.7471 27.8236 19.3543 28.394 19.755C28.7349 19.9857 29.148 20.1071 29.5676 20.1071C29.7249 20.1071 29.8823 20.0889 30.0331 20.0586C31.3313 19.6943 32.1508 18.5164 31.9738 17.2718Z" fill="#2C063F"/>
<path d="M17.8842 15.8086C18.035 15.8389 18.1923 15.8571 18.3497 15.8571C18.7693 15.8571 19.1823 15.7357 19.5233 15.505C20.0937 15.1043 20.4543 14.4971 20.5067 13.8353C20.6903 12.5907 19.8642 11.4068 18.566 11.0486C17.9956 10.9211 17.399 11.0364 16.9269 11.3521C16.3565 11.7528 15.9959 12.36 15.9435 13.0218C15.7599 14.2664 16.586 15.4503 17.8842 15.8086Z" fill="#2C063F"/>
<path d="M23.4833 15.505C23.8242 15.7357 24.2373 15.8571 24.6569 15.8571C24.8142 15.8571 24.9716 15.8389 25.1224 15.8086C26.4205 15.4443 27.2401 14.2664 27.0631 13.0218C27.0106 12.36 26.65 11.7528 26.0796 11.3521C25.6076 11.0364 25.0109 10.9211 24.4405 11.0486C23.1424 11.4128 22.3228 12.5907 22.4998 13.8353C22.5523 14.4971 22.9129 15.1043 23.4833 15.505Z" fill="#2C063F"/>
</g>
<defs>
<filter id="filter0_d_1_386" x="0" y="0" width="41" height="41" filterUnits="userSpaceOnUse" color-interpolation-filters="sRGB">
<feFlood flood-opacity="0" result="BackgroundImageFix"/>
<feColorMatrix in="SourceAlpha" type="matrix" values="0 0 0 0 0 0 0 0 0 0 0 0 0 0 0 0 0 0 127 0" result="hardAlpha"/>
<feOffset dx="-1" dy="1"/>
<feColorMatrix type="matrix" values="0 0 0 0 0.172549 0 0 0 0 0.0235294 0 0 0 0 0.247059 0 0 0 1 0"/>
<feBlend mode="normal" in2="BackgroundImageFix" result="effect1_dropShadow_1_386"/>
<feBlend mode="normal" in="SourceGraphic" in2="effect1_dropShadow_1_386" result="shape"/>
</filter>
<clipPath id="clip0_1_386">
<rect width="21" height="17" fill="white" transform="translate(11 11)"/>
</clipPath>
</defs>
</svg>
