<svg width="41" height="41" viewBox="0 0 41 41" fill="none" xmlns="http://www.w3.org/2000/svg">
<g filter="url(#filter0_d_1_389)">
<circle cx="21" cy="20" r="20" fill="white"/>
<circle cx="21" cy="20" r="19.5" stroke="#2C063F"/>
</g>
<g clip-path="url(#clip0_1_389)">
<path d="M22.0925 18.5693C21.9923 18.5693 21.8995 18.5298 21.8289 18.4651L17.5645 14.3291C16.2729 13.2007 16.1689 11.271 17.3344 10.0205C18.4998 8.77002 20.4928 8.6694 21.7844 9.79774C21.892 9.89117 21.996 9.99538 22.0887 10.1032C23.2022 8.80954 25.1915 8.63347 26.5277 9.71149C27.8638 10.7895 28.0457 12.7156 26.9322 14.0092C26.8283 14.1278 26.717 14.2392 26.5982 14.3398L22.3523 18.4651C22.2817 18.5334 22.189 18.5693 22.0887 18.5693H22.0925Z" fill="#2C063F"/>
<path d="M30.8218 22.6514C30.3987 21.8788 29.4078 21.5842 28.6061 21.9938C28.5801 22.0082 28.5541 22.019 28.5319 22.0334L24.5198 24.308C24.1932 25.0806 23.4546 25.6124 22.5972 25.6987L16.9447 26.2736C16.9447 26.2736 16.9187 26.2736 16.9075 26.2736C16.7034 26.2736 16.5364 26.1083 16.5401 25.9107C16.5401 25.7274 16.6848 25.5765 16.8704 25.5549H16.9075L22.4859 24.9836C23.3247 24.8973 23.9593 24.2146 23.9593 23.3989C23.9593 22.5796 23.3172 21.8968 22.4785 21.8142L17.0003 21.2859C16.6923 21.2572 16.3916 21.1889 16.1021 21.0883L13.222 20.0749C12.7173 19.8989 12.1791 19.827 11.6447 19.8701L8.34146 20.136C8.14846 20.154 8 20.3085 8 20.499V26.6365C8 26.8306 8.16702 26.9923 8.37115 26.9923H9.67016C10.2751 26.9923 10.8727 27.136 11.4071 27.4091L15.6456 29.5831C16.4547 29.9964 17.3937 30.1078 18.2808 29.8922L25.3548 28.1781C25.6555 28.1062 25.9338 27.9733 26.1788 27.79L30.3171 24.6889C30.9703 24.2146 31.1819 23.3557 30.8181 22.6478L30.8218 22.6514Z" fill="#2C063F"/>
</g>
<defs>
<filter id="filter0_d_1_389" x="0" y="0" width="41" height="41" filterUnits="userSpaceOnUse" color-interpolation-filters="sRGB">
<feFlood flood-opacity="0" result="BackgroundImageFix"/>
<feColorMatrix in="SourceAlpha" type="matrix" values="0 0 0 0 0 0 0 0 0 0 0 0 0 0 0 0 0 0 127 0" result="hardAlpha"/>
<feOffset dx="-1" dy="1"/>
<feColorMatrix type="matrix" values="0 0 0 0 0.172549 0 0 0 0 0.0235294 0 0 0 0 0.247059 0 0 0 1 0"/>
<feBlend mode="normal" in2="BackgroundImageFix" result="effect1_dropShadow_1_389"/>
<feBlend mode="normal" in="SourceGraphic" in2="effect1_dropShadow_1_389" result="shape"/>
</filter>
<clipPath id="clip0_1_389">
<rect width="23" height="21" fill="white" transform="translate(8 9)"/>
</clipPath>
</defs>
</svg>
